G04 ================== begin FILE IDENTIFICATION RECORD ==================*
G04 Layout Name:  DISPLAY.brd*
G04 Film Name:    BOTTOM*
G04 File Format:  Gerber RS274X*
G04 File Origin:  Cadence Allegro 16.6-2015-S059*
G04 Origin Date:  Sun May 05 10:31:10 2019*
G04 *
G04 Layer:  ETCH/BOTTOM*
G04 Layer:  PIN/BOTTOM*
G04 Layer:  VIA CLASS/BOTTOM*
G04 *
G04 Offset:    (0.000 0.000)*
G04 Mirror:    No*
G04 Mode:      Positive*
G04 Rotation:  0*
G04 FullContactRelief:  No*
G04 UndefLineWidth:     0.254*
G04 ================== end FILE IDENTIFICATION RECORD ====================*
%FSLAX35Y35*MOMM*%
%IR0*IPPOS*OFA0.00000B0.00000*MIA0B0*SFA1.00000B1.00000*%
%ADD13C,3.302*%
%ADD10C,1.27*%
%ADD14C,1.524*%
%ADD12C,1.651*%
%ADD11R,1.27X1.27*%
%ADD15C,.889*%
%ADD16C,1.*%
%ADD17C,2.54*%
%ADD18C,.5*%
G75*
%LPD*%
G75*
G54D10*
X500000Y500000D03*
Y6500000D03*
X2356000Y1270000D03*
X3372000D03*
X4896000Y2540000D03*
Y3556000D03*
X5912000Y2540000D03*
Y3556000D03*
X12500000Y500000D03*
Y6500000D03*
G54D11*
X2032000Y1270000D03*
X3048000D03*
X4572000Y2540000D03*
Y3556000D03*
X5588000Y2540000D03*
Y3556000D03*
G54D12*
X1968500Y4064000D03*
X2984500D03*
X6731000Y1016000D03*
Y1397000D03*
Y1778000D03*
Y2159000D03*
X7747000Y1016000D03*
Y1397000D03*
Y1778000D03*
Y2159000D03*
X8890000Y2286000D03*
X8509000D03*
X8890000Y3302000D03*
X8509000D03*
X9271000Y2286000D03*
Y3302000D03*
X10160000Y1270000D03*
Y2032000D03*
Y1651000D03*
Y2794000D03*
Y2413000D03*
Y3556000D03*
Y3175000D03*
X11176000Y1270000D03*
Y2032000D03*
Y1651000D03*
Y2794000D03*
Y2413000D03*
Y3556000D03*
Y3175000D03*
G54D13*
X1727000Y5080000D03*
X2977000D03*
X9977000D03*
X11227000D03*
G54D14*
X3937000Y381000D03*
X4191000D03*
X8128000Y508000D03*
X8890000D03*
X8636000D03*
X8382000D03*
X9652000D03*
X9398000D03*
X9144000D03*
G54D15*
X5080000Y5080000D03*
X5842000D03*
X5715000D03*
X5588000D03*
X5461000D03*
X5334000D03*
X5207000D03*
X6604000D03*
X6477000D03*
X6350000D03*
X6223000D03*
X6096000D03*
X5969000D03*
X7366000D03*
X7239000D03*
X7112000D03*
X6985000D03*
X6858000D03*
X6731000D03*
X7874000D03*
X7747000D03*
X7620000D03*
X7493000D03*
G54D16*
G01X5912000Y2540000D02*
X6223000Y2851000D01*
Y4254500D01*
X5842000Y4635500D01*
Y5080000D01*
G01D02*
Y5270500D01*
X5969000Y5397500D01*
X6413500D01*
X6484300Y5326700D01*
G01X6223000Y5080000D02*
X6096000D01*
G01X6350000D02*
X6223000D01*
G01X6477000D02*
X6350000D01*
G01X6484300Y5326700D02*
Y5194500D01*
X6477000Y5187200D01*
Y5080000D01*
G01X7747000D02*
Y5187200D01*
X7607500Y5326700D01*
X6484300D01*
G01X9977000Y4579500D02*
X9476500Y5080000D01*
X7874000D01*
G01D02*
X7747000D01*
G01X9977000Y4579500D02*
X10477500D01*
X11176000Y3881000D01*
Y3556000D01*
G01Y1651000D02*
Y1270000D01*
G01Y2413000D02*
Y2032000D01*
G01D02*
Y1651000D01*
G01Y3175000D02*
Y2794000D01*
G01D02*
Y2413000D01*
G01Y3556000D02*
Y3175000D01*
G54D17*
G01X2977000Y5080000D02*
Y4628000D01*
G01X9977000Y4579500D02*
Y4643000D01*
G01Y5080000D02*
Y4643000D01*
G54D18*
G01X5715000Y5080000D02*
Y5334000D01*
X5524500Y5524500D01*
X4699000D01*
X4191000Y5016500D01*
Y3429000D01*
X4572000Y3048000D01*
Y2540000D01*
G01X5080000Y5080000D02*
X4572000Y4572000D01*
Y3556000D01*
G01X5207000Y5080000D02*
Y3867000D01*
X4896000Y3556000D01*
G01X5588000Y5080000D02*
Y4191000D01*
X6096000Y3683000D01*
Y3048000D01*
X5588000Y2540000D01*
G01X5334000Y5080000D02*
Y3810000D01*
X5588000Y3556000D01*
G01X5461000Y5080000D02*
Y4007000D01*
X5912000Y3556000D01*
G01X6604000Y5080000D02*
Y4000500D01*
X6731000Y3873500D01*
Y2159000D01*
G01X6985000Y5080000D02*
Y4572000D01*
X7175500Y4381500D01*
Y1460500D01*
X6731000Y1016000D01*
G01X6858000Y5080000D02*
Y4318000D01*
X7048500Y4127500D01*
Y1587500D01*
X6858000Y1397000D01*
X6731000D01*
G01Y5080000D02*
Y4191000D01*
X6921500Y4000500D01*
Y1968500D01*
X6731000Y1778000D01*
G01X7112000Y5080000D02*
Y4699000D01*
X8509000Y3302000D01*
G01X7239000Y5080000D02*
Y4826000D01*
X7429500Y4635500D01*
X7556500D01*
X8890000Y3302000D01*
G01X7366000Y5080000D02*
Y4889500D01*
X7493000Y4762500D01*
X7810500D01*
X9271000Y3302000D01*
G01X7747000Y1016000D02*
Y889000D01*
X8128000Y508000D01*
G01X8509000Y2286000D02*
X8255000Y2540000D01*
X7747000D01*
X7556500Y2349500D01*
Y444500D01*
X7747000Y254000D01*
X9271000D01*
X9398000Y381000D01*
Y508000D01*
G01X7747000Y1397000D02*
X8382000Y762000D01*
Y508000D01*
G01X7747000Y1778000D02*
X8636000Y889000D01*
Y508000D01*
G01X8890000D02*
Y1016000D01*
X7747000Y2159000D01*
G01X9144000Y508000D02*
Y2032000D01*
X8890000Y2286000D01*
G01X8509000Y3302000D02*
X9017000Y2794000D01*
X9652000D01*
X10033000Y3175000D01*
X10160000D01*
G01X9271000Y2286000D02*
Y889000D01*
X9652000Y508000D01*
G01X9271000Y3302000D02*
X9906000D01*
X10160000Y3556000D01*
M02*
