M48
METRIC,TZ
T01C.533
T02C.813
T03C.889
T04C.914
T05C1.067
T06C3.048
T07C3.962
;LEADER: 12 
;HEADER: 
;CODE  : ASCII 
;FILE  : DISPLAY-1-2.drl for board #Taaaaag07540.tmp ... layers TOP and BOTTOM
;T01 Holesize 1. = 0.533000 Tolerance = +0.000000/-0.000000 PLATED MM Quantity = 23
;T02 Holesize 2. = 0.813000 Tolerance = +0.000000/-0.000000 PLATED MM Quantity = 12
;T03 Holesize 3. = 0.889000 Tolerance = +0.000000/-0.000000 PLATED MM Quantity = 7
;T04 Holesize 4. = 0.914000 Tolerance = +0.000000/-0.000000 PLATED MM Quantity = 2
;T05 Holesize 5. = 1.067000 Tolerance = +0.000000/-0.000000 PLATED MM Quantity = 30
;T06 Holesize 6. = 3.048000 Tolerance = +0.000000/-0.000000 PLATED MM Quantity = 4
;T07 Holesize 7. = 3.962000 Tolerance = +0.000000/-0.000000 NON_PLATED MM Quantity = 4
%
G90
T01
X5080000Y5080000
R22X127000
T02
X2032000Y1270000
X2356000
X3048000
X3372000
X4572000Y2540000
X4896000
X5588000
X5912000
Y3556000
X5588000
X4896000
X4572000
T03
X8128000Y508000
R06X254000
T04
X3937000Y381000
X4191000
T05
X1968500Y4064000
X2984500
X6731000Y2159000
R03Y-381000
X7747000
R03Y381000
X8509000Y2286000
X8890000
X8509000Y3302000
R02X381000
Y2286000
X10160000Y1270000
Y1651000
R05Y381000
X11176000
R06Y-381000
T06
X1727000Y5080000
X2977000
X9977000
X11227000
T07
X500000Y500000
Y6500000
X12500000
Y500000
M30
