G04 ================== begin FILE IDENTIFICATION RECORD ==================*
G04 Layout Name:  DISPLAY.brd*
G04 Film Name:    SMB*
G04 File Format:  Gerber RS274X*
G04 File Origin:  Cadence Allegro 16.6-2015-S059*
G04 Origin Date:  Sun May 05 10:31:10 2019*
G04 *
G04 Layer:  VIA CLASS/SOLDERMASK_BOTTOM*
G04 Layer:  PIN/SOLDERMASK_BOTTOM*
G04 Layer:  PACKAGE GEOMETRY/SOLDERMASK_BOTTOM*
G04 Layer:  BOARD GEOMETRY/SOLDERMASK_BOTTOM*
G04 *
G04 Offset:    (0.000 0.000)*
G04 Mirror:    No*
G04 Mode:      Positive*
G04 Rotation:  0*
G04 FullContactRelief:  No*
G04 UndefLineWidth:     0.254*
G04 ================== end FILE IDENTIFICATION RECORD ====================*
%FSLAX35Y35*MOMM*%
%IR0*IPPOS*OFA0.00000B0.00000*MIA0B0*SFA1.00000B1.00000*%
%ADD12C,2.032*%
%ADD16C,1.143*%
%ADD14C,1.524*%
%ADD10C,5.08*%
%ADD15C,1.905*%
%ADD13C,3.556*%
%ADD11R,1.524X1.524*%
%ADD17C,1.778*%
%LPD*%
G75*
G54D10*
X500000Y500000D03*
Y6500000D03*
X12500000Y500000D03*
Y6500000D03*
G54D11*
X2032000Y1270000D03*
X3048000D03*
X4572000Y2540000D03*
Y3556000D03*
X5588000Y2540000D03*
Y3556000D03*
G54D12*
X1968500Y4064000D03*
X2984500D03*
X6731000Y1016000D03*
Y1397000D03*
Y1778000D03*
Y2159000D03*
X7747000Y1016000D03*
Y1397000D03*
Y1778000D03*
Y2159000D03*
X8890000Y2286000D03*
X8509000D03*
X8890000Y3302000D03*
X8509000D03*
X9271000Y2286000D03*
Y3302000D03*
X10160000Y1270000D03*
Y2032000D03*
Y1651000D03*
Y2794000D03*
Y2413000D03*
Y3556000D03*
Y3175000D03*
X11176000Y1270000D03*
Y2032000D03*
Y1651000D03*
Y2794000D03*
Y2413000D03*
Y3556000D03*
Y3175000D03*
G54D13*
X1727000Y5080000D03*
X2977000D03*
X9977000D03*
X11227000D03*
G54D14*
X2356000Y1270000D03*
X3372000D03*
X4896000Y2540000D03*
Y3556000D03*
X5912000Y2540000D03*
Y3556000D03*
G54D15*
X3937000Y381000D03*
X4191000D03*
G54D16*
X5080000Y5080000D03*
X5842000D03*
X5715000D03*
X5588000D03*
X5461000D03*
X5334000D03*
X5207000D03*
X6604000D03*
X6477000D03*
X6350000D03*
X6223000D03*
X6096000D03*
X5969000D03*
X7366000D03*
X7239000D03*
X7112000D03*
X6985000D03*
X6858000D03*
X6731000D03*
X7874000D03*
X7747000D03*
X7620000D03*
X7493000D03*
G54D17*
X8128000Y508000D03*
X8890000D03*
X8636000D03*
X8382000D03*
X9652000D03*
X9398000D03*
X9144000D03*
M02*
