G04 ================== begin FILE IDENTIFICATION RECORD ==================*
G04 Layout Name:  DISPLAY.brd*
G04 Film Name:    TOP*
G04 File Format:  Gerber RS274X*
G04 File Origin:  Cadence Allegro 16.6-2015-S059*
G04 Origin Date:  Sun May 05 10:31:10 2019*
G04 *
G04 Layer:  ETCH/TOP*
G04 Layer:  PIN/TOP*
G04 Layer:  VIA CLASS/TOP*
G04 *
G04 Offset:    (0.000 0.000)*
G04 Mirror:    No*
G04 Mode:      Positive*
G04 Rotation:  0*
G04 FullContactRelief:  No*
G04 UndefLineWidth:     0.254*
G04 ================== end FILE IDENTIFICATION RECORD ====================*
%FSLAX35Y35*MOMM*%
%IR0*IPPOS*OFA0.00000B0.00000*MIA0B0*SFA1.00000B1.00000*%
%ADD13C,3.302*%
%ADD10C,1.27*%
%ADD16C,1.524*%
%ADD12C,1.651*%
%ADD11R,1.27X1.27*%
%ADD14R,2.032X4.572*%
%ADD15R,1.829X1.118*%
%ADD17C,.889*%
%ADD18C,1.*%
%ADD19C,2.54*%
%ADD20C,.5*%
G75*
%LPD*%
G75*
G54D10*
X500000Y500000D03*
Y6500000D03*
X2356000Y1270000D03*
X3372000D03*
X4896000Y2540000D03*
Y3556000D03*
X5912000Y2540000D03*
Y3556000D03*
X12500000Y500000D03*
Y6500000D03*
G54D20*
G01X3048000Y1270000D02*
X3429000Y1651000D01*
G01D02*
Y2667000D01*
X3350000Y2746000D01*
X3048000D01*
G01X5969000Y5080000D02*
Y4762500D01*
X6223000Y4508500D01*
Y2159000D01*
X5715000Y1651000D01*
X3429000D01*
G01X7493000Y5080000D02*
Y5270500D01*
X7429500Y5334000D01*
X6096000D01*
X5969000Y5207000D01*
Y5080000D01*
G01X10160000Y1270000D02*
X10039600D01*
X9976100Y1206500D01*
X7366000D01*
X7175500Y1016000D01*
X6731000D01*
G01Y1397000D02*
X6921500Y1587500D01*
X7937500D01*
X8001000Y1651000D01*
X10160000D01*
G01Y2032000D02*
X10039600D01*
X9976100Y1968500D01*
X7175500D01*
X6985000Y1778000D01*
X6731000D01*
G01Y2159000D02*
X7239000Y2667000D01*
X9525000D01*
X9779000Y2413000D01*
X10160000D01*
G01X7620000Y5080000D02*
Y4812500D01*
X7570000Y4762500D01*
X7543000D01*
X7493000Y4812500D01*
Y5080000D01*
G01X10160000Y2794000D02*
X9969500Y2984500D01*
X9207500D01*
X8890000Y3302000D01*
G54D11*
X2032000Y1270000D03*
X3048000D03*
X4572000Y2540000D03*
Y3556000D03*
X5588000Y2540000D03*
Y3556000D03*
G54D12*
X1968500Y4064000D03*
X2984500D03*
X6731000Y1016000D03*
Y1397000D03*
Y1778000D03*
Y2159000D03*
X7747000Y1016000D03*
Y1397000D03*
Y1778000D03*
Y2159000D03*
X8890000Y2286000D03*
X8509000D03*
X8890000Y3302000D03*
X8509000D03*
X9271000Y2286000D03*
Y3302000D03*
X10160000Y1270000D03*
Y2032000D03*
Y1651000D03*
Y2794000D03*
Y2413000D03*
Y3556000D03*
Y3175000D03*
X11176000Y1270000D03*
Y2032000D03*
Y1651000D03*
Y2794000D03*
Y2413000D03*
Y3556000D03*
Y3175000D03*
G54D13*
X1727000Y5080000D03*
X2977000D03*
X9977000D03*
X11227000D03*
G54D14*
X2348000Y2516000D03*
G54D15*
X3048000Y2746000D03*
Y2516000D03*
Y2286000D03*
G54D16*
X3937000Y381000D03*
X4191000D03*
X8128000Y508000D03*
X8890000D03*
X8636000D03*
X8382000D03*
X9652000D03*
X9398000D03*
X9144000D03*
G54D17*
X5080000Y5080000D03*
X5842000D03*
X5715000D03*
X5588000D03*
X5461000D03*
X5334000D03*
X5207000D03*
X6604000D03*
X6477000D03*
X6350000D03*
X6223000D03*
X6096000D03*
X5969000D03*
X7366000D03*
X7239000D03*
X7112000D03*
X6985000D03*
X6858000D03*
X6731000D03*
X7874000D03*
X7747000D03*
X7620000D03*
X7493000D03*
G54D18*
G01X4191000Y381000D02*
Y190500D01*
X4127500Y127000D01*
X1714500D01*
X1333500Y508000D01*
Y4191000D01*
X1587500Y4445000D01*
X2413000D01*
X2652100Y4205900D01*
Y3111500D01*
G01X3937000Y381000D02*
X2921000D01*
X2032000Y1270000D01*
G01D02*
Y1460500D01*
X2444700Y1873200D01*
G01X1968500Y4064000D02*
Y2095500D01*
X2190800Y1873200D01*
X2444700D01*
G01X2356000Y1270000D02*
X2673500Y952500D01*
X3238500D01*
X3372000Y1086000D01*
Y1270000D01*
G01X2444700Y1873200D02*
X2857500Y2286000D01*
X3048000D01*
G01X2348000Y2516000D02*
X3048000D01*
G01X2652100Y3111500D02*
X2348000Y2807400D01*
Y2516000D01*
G01X4896000Y2540000D02*
X4324500Y3111500D01*
X2652100D01*
G01X4191000Y381000D02*
Y635000D01*
X3556000Y1270000D01*
X3372000D01*
G01X5912000Y2540000D02*
X5531000Y2159000D01*
X5277000D01*
X4896000Y2540000D01*
G54D19*
G01X2977000Y4643000D02*
X2984500Y4635500D01*
Y4064000D01*
G01X2977000Y5080000D02*
Y4643000D01*
G01X9977000Y5080000D02*
Y4643000D01*
M02*
