G04 ================== begin FILE IDENTIFICATION RECORD ==================*
G04 Layout Name:  MAIN.brd*
G04 Film Name:    BOTTOM*
G04 File Format:  Gerber RS274X*
G04 File Origin:  Cadence Allegro 16.6-2015-S059*
G04 Origin Date:  Sat May 11 14:35:04 2019*
G04 *
G04 Layer:  ETCH/BOTTOM*
G04 Layer:  PIN/BOTTOM*
G04 Layer:  VIA CLASS/BOTTOM*
G04 *
G04 Offset:    (0.000 0.000)*
G04 Mirror:    No*
G04 Mode:      Positive*
G04 Rotation:  0*
G04 FullContactRelief:  No*
G04 UndefLineWidth:     0.254*
G04 ================== end FILE IDENTIFICATION RECORD ====================*
%FSLAX35Y35*MOMM*%
%IR0*IPPOS*OFA0.00000B0.00000*MIA0B0*SFA1.00000B1.00000*%
%ADD12C,3.302*%
%ADD10C,1.27*%
%ADD11C,1.524*%
%ADD14C,1.651*%
%ADD15R,1.27X1.27*%
%ADD13C,1.575*%
%ADD16R,1.524X1.524*%
%ADD17R,2.794X.483*%
%ADD18C,1.*%
%ADD19C,5.*%
%ADD20C,.5*%
G75*
%LPD*%
G75*
G54D10*
X500000Y500000D03*
Y7500000D03*
X7747000Y698500D03*
X8636000Y2540000D03*
X8382000Y3683000D03*
Y4000500D03*
X9271000Y2159000D03*
X9144000Y2667000D03*
X9398000Y7182000D03*
X10953700Y793800D03*
X11176000Y965600D03*
X10668000Y7182000D03*
X12001500Y1143000D03*
X11728900Y806800D03*
X12001500Y3238500D03*
X11811000Y7810500D03*
X12319000Y3238500D03*
X12192000Y3810000D03*
X14097000Y1079500D03*
X14224000Y4381500D03*
X15500000Y500000D03*
Y7500000D03*
G54D20*
G01X508000Y1778000D02*
X359800Y1629800D01*
Y1206500D01*
X486800Y1079500D01*
X1397000D01*
X2603500Y2286000D01*
X4508500D01*
X4635500Y2413000D01*
G01X4381500D02*
X2540000D01*
X1397000Y1270000D01*
X508000D01*
G01Y1524000D02*
X1397000D01*
X2540000Y2667000D01*
X4381500D01*
G01X508000Y2794000D02*
X889000D01*
X1396600Y3301600D01*
X4508100D01*
X4635500Y3429000D01*
G01X4381500Y3683000D02*
X1143000D01*
X1016000Y3556000D01*
X508000D01*
G01Y3302000D02*
X952400D01*
X1206000Y3555600D01*
X4508100D01*
X4635500Y3683000D01*
G01X4381500Y3429000D02*
X1333400D01*
X952400Y3048000D01*
X508000D01*
G01Y4318000D02*
X1016000D01*
X1272200Y4061800D01*
X4506300D01*
X4635500Y4191000D01*
G01X508000Y3810000D02*
X4508500D01*
X4635500Y3937000D01*
G01X4381500D02*
X1143000D01*
X1016000Y4064000D01*
X508000D01*
G01X4381500Y4191000D02*
X4000500Y4572000D01*
X508000D01*
G01X4381500Y2159000D02*
X3238600D01*
X1778000Y698400D01*
Y508000D01*
G01X2032000D02*
Y698400D01*
X3365600Y2032000D01*
X4508500D01*
X4635500Y2159000D01*
G01X4381500Y1905000D02*
X3492600D01*
X2286000Y698400D01*
Y508000D01*
G01X2540000D02*
Y698400D01*
X3620000Y1778400D01*
X4508900D01*
X4635500Y1905000D01*
G01X4381500Y1651000D02*
X3746600D01*
X2794000Y698400D01*
Y508000D01*
G01X4381500Y1397000D02*
X4000600D01*
X3302000Y698400D01*
Y508000D01*
G01X3048000D02*
Y698400D01*
X3874000Y1524400D01*
X4508900D01*
X4635500Y1651000D01*
G01X4572000Y7366000D02*
X4889500Y7048500D01*
X7302500D01*
X7429500Y6921500D01*
Y4699000D01*
G01X4826000Y7366000D02*
X5016500Y7175500D01*
X7366100D01*
X7683500Y6858100D01*
Y4699000D01*
G01X7429500Y2413000D02*
X7048500D01*
X6921500Y2286000D01*
Y571500D01*
X7112000Y381000D01*
X14351000D01*
X14541500Y571500D01*
Y2159000D01*
X14351000Y2349500D01*
X13730500D01*
G01Y2095500D02*
X14287500D01*
X14453400Y1929600D01*
Y610400D01*
X14312100Y469100D01*
X7148500D01*
X7009600Y608000D01*
Y2222500D01*
X7073500Y2286400D01*
X7556900D01*
X7683500Y2413000D01*
G01X7429500Y1651000D02*
X7239000D01*
X7097700Y1509700D01*
Y644500D01*
X7170700Y571500D01*
X14287500D01*
X14365300Y649300D01*
Y1460500D01*
X14238300Y1587500D01*
X13730500D01*
G01X7429500Y1397000D02*
X7239000D01*
X7185800Y1343800D01*
Y762000D01*
X7249300Y698500D01*
X7747000D01*
G01X12636500Y1587500D02*
X9334500D01*
X8889600Y2032400D01*
X7556100D01*
X7429500Y2159000D01*
G01Y1905000D02*
X7556500Y1778000D01*
X8318500D01*
X8636000Y1460500D01*
X12636500D01*
G01X7683500Y1651000D02*
X8141500D01*
X8191500Y1601000D01*
Y1320000D01*
X8241500Y1270000D01*
X13017400D01*
X13081000Y1333600D01*
Y1841500D01*
X13462000Y2222500D01*
X13730500D01*
G01X10160000Y4889500D02*
X9115400Y3844900D01*
Y3500500D01*
X9115500Y3500400D01*
Y3427500D01*
X9115600Y3427400D01*
Y2844400D01*
X9065600Y2794400D01*
X7556100D01*
X7429500Y2921000D01*
G01X8636000Y2540000D02*
X7556500D01*
X7429500Y2667000D01*
G01X7683500D02*
X9144000D01*
G01X7683500Y2159000D02*
X9271000D01*
G01X11176000Y4889500D02*
Y5461000D01*
X10933600Y5703400D01*
X9167000D01*
X9166900Y5703500D01*
X9069000D01*
X8636000Y5270500D01*
Y3606400D01*
X8586000Y3556400D01*
X7556900D01*
X7429500Y3429000D01*
G01X10922000Y4889500D02*
Y5397500D01*
X10704200Y5615300D01*
X9105400D01*
X8763000Y5272900D01*
Y3483600D01*
X8708400Y3429000D01*
X7683500D01*
G01X10668000Y4889500D02*
Y5270500D01*
X10414000Y5524500D01*
X9139200D01*
X8851100Y5236400D01*
Y3351600D01*
X8801100Y3301600D01*
X7556100D01*
X7429500Y3175000D01*
G01X7683500D02*
X8889300D01*
X8939300Y3225000D01*
Y3354500D01*
X8939200Y3354600D01*
Y5199900D01*
X9175700Y5436400D01*
X10184700D01*
X10414000Y5207100D01*
Y4889500D01*
G01X7683500Y2921000D02*
X8977500D01*
X9027500Y2971000D01*
Y3390900D01*
X9027300Y3391100D01*
Y4010800D01*
X9906000Y4889500D01*
G01X8382000Y4000500D02*
X8318400D01*
X8128300Y3810400D01*
X7556900D01*
X7429500Y3683000D01*
G01X7683500D02*
X8382000D01*
G01X7429500Y4445000D02*
X7556500Y4572000D01*
X8039900D01*
X8103400Y4635500D01*
Y6210600D01*
X8179300Y6286500D01*
X11493500D01*
X11938000Y6731000D01*
X12414500D01*
G01Y6604000D02*
X12001500D01*
X11493500Y6096000D01*
X8241500D01*
X8191500Y6046000D01*
Y4508500D01*
X8128000Y4445000D01*
X7683500D01*
G01X12414500Y6985000D02*
X11684000D01*
X11620500Y7048500D01*
X9588500D01*
X9398000Y6858000D01*
G01X10160000Y4127500D02*
Y3619500D01*
X11938000Y1841500D01*
X12636500D01*
G01Y1714500D02*
X11874400D01*
X9906000Y3682900D01*
Y4127500D01*
G01X12636500Y1968500D02*
X12001600D01*
X10414000Y3556100D01*
Y4127500D01*
G01X13730500Y2857500D02*
X13487400D01*
X13398500Y2946400D01*
Y4306900D01*
X13196900Y4508500D01*
X10795000D01*
X10414000Y4889500D01*
G01X10160000D02*
X10629100Y4420400D01*
X13160400D01*
X13298900Y4281900D01*
Y2893600D01*
X13462000Y2730500D01*
X13730500D01*
G01X11176000Y965600D02*
X13094200D01*
X13257200Y1128600D01*
Y1615500D01*
X13483200Y1841500D01*
X13730500D01*
G01X12636500Y2349500D02*
X12128600D01*
X11176000Y3302100D01*
Y4127500D01*
G01X12636500Y2222500D02*
X12128600D01*
X10922000Y3429100D01*
Y4127500D01*
G01X10668000D02*
Y3492500D01*
X12065000Y2095500D01*
X12636500D01*
G01X10922000Y4889500D02*
Y4749100D01*
X10972100Y4699000D01*
X13680500D01*
X13730500Y4649000D01*
Y3111500D01*
G01Y2984500D02*
X13512000D01*
X13486600Y3009900D01*
Y4536300D01*
X13412000Y4610900D01*
X10935600D01*
X10833900Y4712600D01*
Y4723600D01*
X10668000Y4889500D01*
G01Y6858000D02*
X12414500D01*
G01X11728900Y806800D02*
X13125800D01*
X13345300Y1026300D01*
Y1579000D01*
X13480800Y1714500D01*
X13730500D01*
G01X12636500Y2603500D02*
X12191900D01*
X11684000Y3111400D01*
Y4127500D01*
G01X12636500Y2476500D02*
X12128500D01*
X11430000Y3175000D01*
Y4127500D01*
G01X12192000Y3810000D02*
X12183900Y3801900D01*
X12056800D01*
X11811000Y3556100D01*
Y3111500D01*
X12192000Y2730500D01*
X12636500D01*
G01X12001500Y1143000D02*
X13081000D01*
X13169100Y1231100D01*
Y1652000D01*
X13485600Y1968500D01*
X13730500D01*
G01X12636500Y2857500D02*
X12192100D01*
X12001500Y3048100D01*
Y3238500D01*
G01X12319000D02*
Y3048000D01*
X12382500Y2984500D01*
X12636500D01*
G01X13398500Y6731000D02*
X14618500D01*
X14668500Y6681000D01*
Y6350000D01*
G01X14224000Y4381500D02*
Y2667000D01*
X14160500Y2603500D01*
X13730500D01*
G54D11*
X508000Y1270000D03*
Y1778000D03*
Y1524000D03*
Y2540000D03*
Y2794000D03*
Y3048000D03*
Y3302000D03*
Y3556000D03*
Y3810000D03*
Y4064000D03*
Y4318000D03*
Y4572000D03*
Y4826000D03*
X2032000Y508000D03*
X1778000D03*
X2794000D03*
X2540000D03*
X2286000D03*
X3302000D03*
X3048000D03*
X4381500Y1143000D03*
Y1397000D03*
Y1651000D03*
Y1905000D03*
Y2159000D03*
Y2413000D03*
Y2667000D03*
Y2921000D03*
Y3175000D03*
Y3429000D03*
Y3683000D03*
Y3937000D03*
X4318000Y7366000D03*
X4635500Y1143000D03*
Y1397000D03*
Y1651000D03*
Y1905000D03*
Y2159000D03*
Y2413000D03*
Y2667000D03*
Y2921000D03*
Y3175000D03*
Y3429000D03*
Y3683000D03*
Y3937000D03*
X5080000Y7366000D03*
X4826000D03*
X4572000D03*
X7429500Y1143000D03*
Y1397000D03*
Y1651000D03*
Y1905000D03*
Y2159000D03*
Y2413000D03*
Y2667000D03*
Y2921000D03*
Y3175000D03*
Y3429000D03*
Y3683000D03*
Y3937000D03*
Y4191000D03*
Y4445000D03*
Y4699000D03*
X7683500Y1143000D03*
Y1397000D03*
Y1651000D03*
Y1905000D03*
Y2159000D03*
Y2413000D03*
Y2667000D03*
Y2921000D03*
Y3175000D03*
Y3429000D03*
Y3683000D03*
Y3937000D03*
Y4191000D03*
Y4445000D03*
Y4699000D03*
X9652000Y4127500D03*
Y4889500D03*
X10414000Y4127500D03*
X10160000D03*
X9906000D03*
Y4889500D03*
X10160000D03*
X10414000D03*
X11176000Y4127500D03*
X10922000D03*
X10668000D03*
Y4889500D03*
X10922000D03*
X11176000D03*
X11938000Y4127500D03*
X11684000D03*
X11430000D03*
Y4889500D03*
X11684000D03*
G54D12*
X1320800Y6350000D03*
X1676400Y5842000D03*
X2032000Y6350000D03*
G54D13*
X4381500Y4191000D03*
Y4445000D03*
Y4699000D03*
X4635500Y4191000D03*
Y4445000D03*
Y4699000D03*
G54D14*
X6921500Y6858000D03*
Y7366000D03*
X14668500Y6350000D03*
Y7366000D03*
G54D15*
X9398000Y6858000D03*
X10668000D03*
G54D16*
X11938000Y4889500D03*
G54D17*
X12636500Y2095500D03*
Y1968500D03*
Y1841500D03*
Y1714500D03*
Y1587500D03*
Y1460500D03*
Y2857500D03*
Y2730500D03*
Y2603500D03*
Y2476500D03*
Y2349500D03*
Y2222500D03*
Y3111500D03*
Y2984500D03*
X12414500Y6604000D03*
Y6477000D03*
Y7239000D03*
Y7112000D03*
Y6985000D03*
Y6858000D03*
Y6731000D03*
X13398500Y6477000D03*
Y6604000D03*
Y6731000D03*
Y6858000D03*
Y6985000D03*
Y7112000D03*
Y7239000D03*
X13730500Y1460500D03*
Y1587500D03*
Y1714500D03*
Y1841500D03*
Y1968500D03*
Y2095500D03*
Y2222500D03*
Y2349500D03*
Y2476500D03*
Y2603500D03*
Y2730500D03*
Y2857500D03*
Y2984500D03*
Y3111500D03*
G54D18*
G01X4381500Y1143000D02*
Y290500D01*
X4281500Y190500D01*
X1179500D01*
X1079500Y290500D01*
Y626300D01*
X753300Y952500D01*
X381000D01*
X246700Y1086800D01*
Y2405700D01*
X317500Y2476500D01*
Y2540000D01*
G01X1003300Y6667500D02*
X246700Y5910900D01*
Y2610800D01*
X317500Y2540000D01*
G01D02*
X508000D01*
G01X2032000Y6350000D02*
X2413000Y5969000D01*
Y5080000D01*
X2159000Y4826000D01*
X508000D01*
G01X1003300Y6667500D02*
X2019300Y7683500D01*
X4953000D01*
X5080000Y7556500D01*
Y7366000D01*
G01X4318000D02*
X3048000D01*
X2349500Y6667500D01*
G01X4635500Y1143000D02*
X4381500D01*
G01Y4699000D02*
Y6858000D01*
G01Y4445000D02*
Y4699000D01*
G01X4635500Y4445000D02*
X4381500D01*
G01X4635500Y4699000D02*
X4381500D01*
G01Y6858000D02*
Y7163500D01*
X4318000Y7227000D01*
Y7366000D01*
G01X6921500Y6858000D02*
X4381500D01*
G01X4635500Y4699000D02*
Y4445000D01*
G01X5080000Y7366000D02*
X6921500D01*
G01X9398000Y7182000D02*
X9214000Y7366000D01*
X6921500D01*
G01X10953700Y793800D02*
X10604500Y1143000D01*
X7683500D01*
G01X9398000Y7182000D02*
X10668000D01*
G01X11938000Y4889500D02*
X14224000D01*
X14414500Y4699000D01*
Y2603500D01*
X14287500Y2476500D01*
X13730500D01*
G01X12414500Y7239000D02*
X12001500D01*
X11811000Y7429500D01*
Y7810500D01*
G01X12636500Y3111500D02*
X12981000D01*
X13081000Y3011500D01*
Y2794000D01*
X13398500Y2476500D01*
X13730500D01*
G01X12414500Y7239000D02*
Y7112000D01*
G01X13398500Y6477000D02*
X13117500D01*
X13017500Y6577000D01*
Y6758000D01*
X13117500Y6858000D01*
X13398500D01*
G01Y6477000D02*
X13652500D01*
G01X14668500Y7366000D02*
Y7112000D01*
X14414500Y6858000D01*
X13398500D01*
G01X13730500Y1460500D02*
Y1373500D01*
X14024500Y1079500D01*
X14097000D01*
G54D19*
G01X1320800Y6350000D02*
X1003300Y6667500D01*
G01X2349500D02*
X2032000Y6350000D01*
M02*
