G04 ================== begin FILE IDENTIFICATION RECORD ==================*
G04 Layout Name:  MAIN.brd*
G04 Film Name:    BOTTOM*
G04 File Format:  Gerber RS274X*
G04 File Origin:  Cadence Allegro 16.6-2015-S059*
G04 Origin Date:  Sun May 05 09:19:42 2019*
G04 *
G04 Layer:  ETCH/BOTTOM*
G04 Layer:  PIN/BOTTOM*
G04 Layer:  VIA CLASS/BOTTOM*
G04 *
G04 Offset:    (0.000 0.000)*
G04 Mirror:    No*
G04 Mode:      Positive*
G04 Rotation:  0*
G04 FullContactRelief:  No*
G04 UndefLineWidth:     0.254*
G04 ================== end FILE IDENTIFICATION RECORD ====================*
%FSLAX35Y35*MOMM*%
%IR0*IPPOS*OFA0.00000B0.00000*MIA0B0*SFA1.00000B1.00000*%
%ADD13C,3.302*%
%ADD10C,1.27*%
%ADD11C,1.524*%
%ADD16C,1.651*%
%ADD17R,1.27X1.27*%
%ADD12C,1.575*%
%ADD18R,1.524X1.524*%
%ADD15R,.483X2.794*%
%ADD14C,.61*%
%ADD19C,1.*%
%ADD20C,.5*%
%ADD21C,.508*%
G75*
%LPD*%
G75*
G54D10*
X500000Y500000D03*
Y6500000D03*
X8960000Y6350000D03*
X10230000D03*
X11500000Y500000D03*
Y6500000D03*
G54D20*
G01X1905000Y1524000D02*
X762000D01*
X508000Y1778000D01*
G01Y1270000D02*
X1905000D01*
G01X508000Y1524000D02*
X635000Y1397000D01*
X2032000D01*
X2159000Y1524000D01*
G01X508000Y2286000D02*
X762000D01*
X1270000Y1778000D01*
X1905000D01*
G01X2159000D02*
X2032000Y1651000D01*
X1079500D01*
X698500Y2032000D01*
X508000D01*
G01Y2794000D02*
X762000D01*
X1524000Y2032000D01*
X1905000D01*
G01X2159000D02*
X2032000Y1905000D01*
X1397000D01*
X762000Y2540000D01*
X508000D01*
G01X2159000Y3302000D02*
X2032000Y3175000D01*
X1587500D01*
X952500Y3810000D01*
X508000D01*
G01X2159000D02*
X2032000Y3683000D01*
X1778000D01*
X635000Y4826000D01*
X508000D01*
G01Y4572000D02*
X775000D01*
X1791000Y3556000D01*
X1905000D01*
G01X2159000D02*
X2032000Y3429000D01*
X1778000D01*
X889000Y4318000D01*
X508000D01*
G01Y4064000D02*
X635000Y3937000D01*
X952500D01*
X1587500Y3302000D01*
X1905000D01*
G01Y3810000D02*
X1778000D01*
X508000Y5080000D01*
G01Y5588000D02*
X698500D01*
X762000Y5524500D01*
Y5207000D01*
X1905000Y4064000D01*
G01X2159000Y2286000D02*
X2032000Y2159000D01*
X1651000D01*
X1206500Y2603500D01*
Y2730500D01*
G01Y3238500D02*
X1066000D01*
X1016000Y3188500D01*
Y2921000D01*
X1079900Y2857100D01*
X1259000D01*
X1333100Y2783000D01*
Y2603900D01*
X1651000Y2286000D01*
X1905000D01*
G01X1206500Y2984500D02*
X1460500D01*
X1905000Y2540000D01*
G01X2540000Y4953000D02*
X2667000D01*
X2730500Y4889500D01*
Y4381500D01*
X2413000Y4064000D01*
X2159000D01*
G01X4953000Y2032000D02*
X4635500D01*
X4508500Y1905000D01*
Y1524000D01*
X4635500Y1397000D01*
X5715100D01*
X6477100Y2159000D01*
X8205000D01*
X8255000Y2109000D01*
Y1905000D01*
G01X4953000Y1524000D02*
X4762500D01*
X4635500Y1651000D01*
Y1778000D01*
X4762500Y1905000D01*
X5715000D01*
X6119800Y2309800D01*
X7834300D01*
X8255000Y2730500D01*
Y2999000D01*
G01X4318000Y4953000D02*
Y4572000D01*
X4572000Y4318000D01*
X4953000D01*
G01X6477000Y1143000D02*
X5080000D01*
X4953000Y1270000D01*
G01X5207000Y1524000D02*
X5588000D01*
G01X4953000Y2286000D02*
X5080000Y2413000D01*
X5227300D01*
X5227700Y2413400D01*
X5651800D01*
X5778400Y2540000D01*
X7239000D01*
X7493000Y2794000D01*
Y2999000D01*
G01X5207000Y2286000D02*
X5714900D01*
X5889500Y2460600D01*
X7477100D01*
X7747000Y2730500D01*
Y2999000D01*
G01X5207000Y2032000D02*
X5651600D01*
X6004800Y2385200D01*
X7782700D01*
X8128000Y2730500D01*
Y2999000D01*
G01X4953000Y1778000D02*
X5080000Y1651000D01*
X5778400D01*
X6361800Y2234400D01*
X8331900D01*
X8382000Y2184300D01*
Y1905000D01*
G01X7112000Y2999000D02*
Y2780500D01*
X7062000Y2730500D01*
X6590500D01*
X6540500Y2780500D01*
Y2857500D01*
X6477000Y2921000D01*
X5080000D01*
X4953000Y2794000D01*
G01X7239000Y2999000D02*
Y2667000D01*
X7187400Y2615400D01*
X6451600D01*
X6413500Y2653500D01*
Y2730500D01*
X6350000Y2794000D01*
X5207000D01*
G01X5715000Y3429000D02*
X5080000D01*
X4953000Y3556000D01*
G01X5207000D02*
X5715000D01*
G01Y3175000D02*
X5080000D01*
X4953000Y3302000D01*
G01Y4572000D02*
Y5207000D01*
G01X5207000Y4572000D02*
Y5207000D01*
G01X6159500Y4445000D02*
X5715000D01*
X5588000Y4318000D01*
X5207000D01*
G01X6858000Y2999000D02*
Y3282800D01*
G01X7620000Y2999000D02*
Y3823500D01*
X7570000Y3873500D01*
X5969000D01*
G01X7620000Y1905000D02*
Y1270000D01*
X7796300Y1093700D01*
X8571000D01*
X8927000Y1449700D01*
Y3525400D01*
X9021100Y3619500D01*
X9334500D01*
X9410400Y3695400D01*
Y3822400D01*
X9715500Y4127500D01*
X11049100D01*
X11303000Y3873600D01*
Y2857500D01*
X10985500Y2540000D01*
X10668000D01*
G01X7112000Y2999000D02*
Y3302000D01*
G01X7493000Y2999000D02*
Y3238500D01*
G01X10668000Y1524000D02*
X10858500D01*
X11811000Y2476500D01*
Y3873500D01*
X10985500Y4699000D01*
X9652000D01*
X8572500Y3619500D01*
Y1524000D01*
X8445500Y1397000D01*
X8191500D01*
X8128000Y1460500D01*
Y1905000D01*
G01X10668000Y2032000D02*
X10985500D01*
X11557000Y2603500D01*
Y3873700D01*
X10985700Y4445000D01*
X9779000D01*
X9207500Y3873500D01*
X9060700D01*
X8775300Y3588100D01*
Y1512400D01*
X8508200Y1245300D01*
X8089200D01*
X7874000Y1460500D01*
Y1905000D01*
G01X8255000D02*
Y1587500D01*
G01X8382000Y1905000D02*
Y1587500D01*
G01X8128000Y2999000D02*
Y3238500D01*
G01X8255000Y2999000D02*
Y3238500D01*
G54D11*
X508000Y1270000D03*
Y1524000D03*
Y1778000D03*
Y2032000D03*
Y2286000D03*
Y2540000D03*
Y2794000D03*
Y3556000D03*
Y3810000D03*
Y4064000D03*
Y4318000D03*
Y4572000D03*
Y4826000D03*
Y5080000D03*
Y5334000D03*
Y5588000D03*
Y5842000D03*
X1206500Y2730500D03*
Y2984500D03*
Y3238500D03*
X2159000Y1016000D03*
X1905000D03*
X2159000Y1270000D03*
X1905000D03*
X2159000Y1524000D03*
X1905000D03*
X2159000Y1778000D03*
X1905000D03*
X2159000Y2032000D03*
X1905000D03*
X2159000Y2286000D03*
X1905000D03*
X2159000Y2540000D03*
X1905000D03*
X2159000Y2794000D03*
X1905000D03*
X2159000Y3048000D03*
X1905000D03*
X2159000Y3302000D03*
X1905000D03*
X2159000Y3556000D03*
X1905000D03*
X2159000Y3810000D03*
X1905000D03*
X5207000Y1016000D03*
X4953000D03*
X5207000Y1270000D03*
X4953000D03*
X5207000Y1524000D03*
X4953000D03*
X5207000Y1778000D03*
X4953000D03*
X5207000Y2032000D03*
X4953000D03*
X5207000Y2286000D03*
X4953000D03*
X5207000Y2540000D03*
X4953000D03*
X5207000Y2794000D03*
X4953000D03*
X5207000Y3048000D03*
X4953000D03*
X5207000Y3302000D03*
X4953000D03*
X5207000Y3556000D03*
X4953000D03*
X5207000Y3810000D03*
X4953000D03*
X5207000Y4064000D03*
X4953000D03*
X5207000Y4318000D03*
X4953000D03*
X5207000Y4572000D03*
X4953000D03*
X5334000Y6604000D03*
X5080000D03*
X4826000D03*
X5588000D03*
X9906000Y1270000D03*
Y1524000D03*
Y1778000D03*
Y2032000D03*
Y2286000D03*
Y2540000D03*
Y2794000D03*
Y3048000D03*
Y3302000D03*
X10668000Y1524000D03*
Y1270000D03*
Y2286000D03*
Y2032000D03*
Y1778000D03*
Y3048000D03*
Y2794000D03*
Y2540000D03*
Y3556000D03*
Y3302000D03*
G54D21*
G01X8001000Y2999000D02*
Y3810000D01*
X7620000Y4191000D01*
X4762500D01*
X4445000Y3873500D01*
Y2857500D01*
X4762500Y2540000D01*
X4953000D01*
G01X7874000Y2999000D02*
Y3810000D01*
X7620000Y4064000D01*
X5386700D01*
X5259700Y3937000D01*
X4762500D01*
X4572000Y3746500D01*
Y2921000D01*
X4826000Y2667000D01*
X5080000D01*
X5207000Y2540000D01*
G01X5715000Y3683000D02*
X4826000D01*
X4699000Y3556000D01*
Y3111500D01*
X4762500Y3048000D01*
X4953000D01*
G01X5207000D02*
X6540500D01*
X6616300Y2972200D01*
Y2844800D01*
X6654800Y2806300D01*
X6907800D01*
X6985000Y2883500D01*
Y2999000D01*
G01X5715000Y3302000D02*
X5207000D01*
G01X6731000Y2999000D02*
Y3238500D01*
X6667500Y3302000D01*
X5715000D01*
G01X6858000Y3282800D02*
X6457800Y3683000D01*
X5715000D01*
G01X6858000Y1905000D02*
Y698500D01*
X7072800Y483700D01*
X8871100D01*
X8871200Y483600D01*
X8934200D01*
X9474200Y1023600D01*
Y2743200D01*
X9525000Y2794000D01*
X9906000D01*
G01X7112000Y1905000D02*
Y686900D01*
X7162800Y636100D01*
X8674200D01*
X9271000Y1232900D01*
Y3060700D01*
X9321800Y3111500D01*
X9715500D01*
X9906000Y3302000D01*
G01X6985000Y1905000D02*
Y679300D01*
X7104400Y559900D01*
X8902700D01*
X9398000Y1055200D01*
Y2870200D01*
X9448800Y2921000D01*
X9779000D01*
X9906000Y3048000D01*
G01X10668000Y3302000D02*
X10858500D01*
X10922000Y3365500D01*
Y3746500D01*
X10871200Y3797300D01*
X9810600D01*
X9664700Y3651400D01*
Y3378200D01*
X9525000Y3238500D01*
X9194800D01*
X9155200Y3198900D01*
Y1269600D01*
X8597900Y712300D01*
X7340600D01*
X7239000Y813900D01*
Y1905000D01*
G01X10668000Y3048000D02*
X10922000D01*
X11049000Y3175000D01*
Y3822600D01*
X10998100Y3873500D01*
X9779000D01*
X9588500Y3683000D01*
Y3429000D01*
X9525000Y3365500D01*
X9214000D01*
X9079000Y3230500D01*
Y1386700D01*
X8581300Y889000D01*
X7421000D01*
X7366000Y944000D01*
Y1905000D01*
G01X10668000Y2794000D02*
X11049000D01*
X11176000Y2921000D01*
Y3873400D01*
X11048900Y4000500D01*
X9715500D01*
X9486200Y3771200D01*
Y3580700D01*
X9398000Y3492500D01*
X9017000D01*
X9002800Y3478300D01*
Y1418300D01*
X8600500Y1016000D01*
X7543800D01*
X7493000Y1066800D01*
Y1905000D01*
G01X6985000Y3746500D02*
Y2999000D01*
G01X7112000Y3302000D02*
Y3746500D01*
G01X7239000D02*
Y2999000D01*
G01X8001000Y1905000D02*
Y1480200D01*
X8160000Y1321200D01*
X8476900D01*
X8699500Y1543800D01*
Y3619500D01*
X9080500Y4000500D01*
X9144000D01*
X9715500Y4572000D01*
X10985500D01*
X11735200Y3822300D01*
Y2591200D01*
X10922000Y1778000D01*
X10668000D01*
G01Y2286000D02*
X11049000D01*
X11430000Y2667000D01*
Y3873400D01*
X11048900Y4254500D01*
X9715500D01*
X9334500Y3873500D01*
Y3810000D01*
X9271000Y3746500D01*
X9040900D01*
X8851100Y3556700D01*
Y1481000D01*
X8539600Y1169500D01*
X7911000D01*
X7747000Y1333500D01*
Y1905000D01*
G01Y2999000D02*
Y3074800D01*
G54D12*
X2159000Y4064000D03*
X1905000D03*
X2159000Y4318000D03*
X1905000D03*
X2159000Y4572000D03*
X1905000D03*
G54D13*
X1778000Y5943600D03*
X2286000Y6299200D03*
Y5588000D03*
G54D14*
X2540000Y4953000D03*
X4318000D03*
X4953000Y5207000D03*
X5207000D03*
X5588000Y1524000D03*
X5715000Y3429000D03*
Y3556000D03*
Y3175000D03*
Y3302000D03*
Y3683000D03*
X5969000Y3873500D03*
X6159500Y4445000D03*
X6477000Y1143000D03*
X7366000Y3683000D03*
X6985000Y3746500D03*
X7112000D03*
X7239000D03*
X10414000Y4889500D03*
G54D15*
X6731000Y1905000D03*
X6858000D03*
Y2999000D03*
X6731000D03*
X6985000Y1905000D03*
X7112000D03*
X7239000D03*
X7366000D03*
X7493000D03*
X7620000D03*
Y2999000D03*
X7493000D03*
X7366000D03*
X7239000D03*
X7112000D03*
X6985000D03*
X7747000Y1905000D03*
X7874000D03*
X8001000D03*
X8128000D03*
X8255000D03*
X8382000D03*
Y2999000D03*
X8255000D03*
X8128000D03*
X8001000D03*
X7874000D03*
X7747000D03*
G54D16*
X6604000Y6604000D03*
X7620000D03*
X9652000Y5588000D03*
X10160000D03*
G54D17*
X8636000Y6350000D03*
X9906000D03*
G54D18*
Y3556000D03*
G54D19*
G01X254000D02*
X119700Y3421700D01*
Y1086800D01*
X190500Y1016000D01*
X1905000D01*
G01X508000Y3556000D02*
X254000D01*
G01D02*
Y5996000D01*
X354000Y6096000D01*
X801800D01*
X1005000Y6299200D01*
X2286000D01*
G01Y5588000D02*
X1143000D01*
X889000Y5842000D01*
X508000D01*
G01X2159000Y1016000D02*
Y877000D01*
X2151700Y869700D01*
Y578800D01*
X2222500Y508000D01*
X5080000D01*
X5207000Y635000D01*
Y1016000D01*
G01X2159000D02*
X1905000D01*
G01X2159000Y4572000D02*
X2286000Y4699000D01*
Y5588000D01*
G01X2159000Y4318000D02*
X1905000D01*
G01X2159000Y4572000D02*
Y4318000D01*
G01Y4572000D02*
X1905000D01*
G01Y4318000D02*
Y4572000D01*
G01X2286000Y5588000D02*
X3111500D01*
X4127500Y6604000D01*
X4826000D01*
G01X2286000Y6299200D02*
Y6731000D01*
X2420300Y6865300D01*
X5517200D01*
X5588000Y6794500D01*
Y6604000D01*
G01X5207000Y1016000D02*
X6604000D01*
X6731000Y1143000D01*
Y1905000D01*
G01X7366000Y3683000D02*
Y2999000D01*
G01X8382000D02*
Y3937000D01*
X9334500Y4889500D01*
X10414000D01*
G01X9906000Y3556000D02*
X10096500D01*
X10167300Y3485200D01*
Y1340800D01*
X10096500Y1270000D01*
X9906000D01*
G01X9652000Y5588000D02*
X10230000Y6166000D01*
Y6350000D01*
M02*
