G04 ================== begin FILE IDENTIFICATION RECORD ==================*
G04 Layout Name:  MAIN.brd*
G04 Film Name:    DRD*
G04 File Format:  Gerber RS274X*
G04 File Origin:  Cadence Allegro 16.6-2015-S059*
G04 Origin Date:  Sat May 11 14:35:04 2019*
G04 *
G04 Layer:  MANUFACTURING/NCDRILL_LEGEND*
G04 Layer:  MANUFACTURING/NCDRILL_FIGURE*
G04 Layer:  MANUFACTURING/NCLEGEND-1-2*
G04 Layer:  BOARD GEOMETRY/OUTLINE*
G04 Layer:  BOARD GEOMETRY/DIMENSION*
G04 *
G04 Offset:    (0.000 0.000)*
G04 Mirror:    No*
G04 Mode:      Positive*
G04 Rotation:  0*
G04 FullContactRelief:  No*
G04 UndefLineWidth:     0.254*
G04 ================== end FILE IDENTIFICATION RECORD ====================*
%FSLAX35Y35*MOMM*%
%IR0*IPPOS*OFA0.00000B0.00000*MIA0B0*SFA1.00000B1.00000*%
%AMMACRO12*
1,1,.254,.4445,0.0*
20,1,.254,.4445,0.0,.22225,.384948,0.0*
1,1,.254,.22225,.384948*
20,1,.254,.22225,.384948,-.22225,.384948,0.0*
1,1,.254,-.22225,.384948*
20,1,.254,-.22225,.384948,-.4445,0.0,0.0*
1,1,.254,-.4445,0.0*
20,1,.254,-.4445,0.0,-.22225,-.384948,0.0*
1,1,.254,-.22225,-.384948*
20,1,.254,-.22225,-.384948,.22225,-.384948,0.0*
1,1,.254,.22225,-.384948*
20,1,.254,.22225,-.384948,.4445,0.0,0.0*
1,1,.254,.4445,0.0*
%
%ADD12MACRO12*%
%AMMACRO15*
1,1,.254,.220983,-.5335*
20,1,.254,.220983,-.5335,-.220983,-.5335,0.0*
1,1,.254,-.220983,-.5335*
20,1,.254,-.220983,-.5335,-.5335,-.220983,0.0*
1,1,.254,-.5335,-.220983*
20,1,.254,-.5335,-.220983,-.5335,.220983,0.0*
1,1,.254,-.5335,.220983*
20,1,.254,-.5335,.220983,-.220983,.5335,0.0*
1,1,.254,-.220983,.5335*
20,1,.254,-.220983,.5335,.220983,.5335,0.0*
1,1,.254,.220983,.5335*
20,1,.254,.220983,.5335,.5335,.220983,0.0*
1,1,.254,.5335,.220983*
20,1,.254,.5335,.220983,.5335,-.220983,0.0*
1,1,.254,.5335,-.220983*
20,1,.254,.5335,-.220983,.220983,-.5335,0.0*
1,1,.254,.220983,-.5335*
%
%ADD15MACRO15*%
%AMMACRO14*
1,1,.254,.4065,0.0*
20,1,.254,.4065,0.0,-.4065,0.0,0.0*
1,1,.254,-.4065,0.0*
1,1,.254,0.0,.4065*
20,1,.254,0.0,.4065,0.0,-.4065,0.0*
1,1,.254,0.0,-.4065*
%
%ADD14MACRO14*%
%AMMACRO16*
1,1,.254,.4065,.4065*
20,1,.254,.4065,.4065,.4065,-.4065,0.0*
1,1,.254,.4065,-.4065*
20,1,.254,.4065,-.4065,-.4065,-.4065,0.0*
1,1,.254,-.4065,-.4065*
20,1,.254,-.4065,-.4065,-.4065,.4065,0.0*
1,1,.254,-.4065,.4065*
20,1,.254,-.4065,.4065,.4065,.4065,0.0*
1,1,.254,.4065,.4065*
%
%ADD16MACRO16*%
%AMMACRO13*
1,1,.254,1.524,0.0*
20,1,.254,1.524,0.0,0.0,-1.524,0.0*
1,1,.254,0.0,-1.524*
20,1,.254,0.0,-1.524,-1.524,0.0,0.0*
1,1,.254,-1.524,0.0*
20,1,.254,-1.524,0.0,0.0,1.524,0.0*
1,1,.254,0.0,1.524*
20,1,.254,0.0,1.524,1.524,0.0,0.0*
1,1,.254,1.524,0.0*
%
%ADD13MACRO13*%
%AMMACRO11*
1,1,.254,0.0,.457*
20,1,.254,0.0,.457,-.395774,.2285,0.0*
1,1,.254,-.395774,.2285*
20,1,.254,-.395774,.2285,-.395774,-.2285,0.0*
1,1,.254,-.395774,-.2285*
20,1,.254,-.395774,-.2285,0.0,-.457,0.0*
1,1,.254,0.0,-.457*
20,1,.254,0.0,-.457,.395774,-.2285,0.0*
1,1,.254,.395774,-.2285*
20,1,.254,.395774,-.2285,.395774,.2285,0.0*
1,1,.254,.395774,.2285*
20,1,.254,.395774,.2285,0.0,.457,0.0*
1,1,.254,0.0,.457*
%
%ADD11MACRO11*%
%AMMACRO10*
1,1,.254,0.0,1.981*
20,1,.254,0.0,1.981,1.981,-1.981,0.0*
1,1,.254,1.981,-1.981*
20,1,.254,1.981,-1.981,-1.981,-1.981,0.0*
1,1,.254,-1.981,-1.981*
20,1,.254,-1.981,-1.981,0.0,1.981,0.0*
1,1,.254,0.0,1.981*
%
%ADD10MACRO10*%
%ADD17C,.254*%
G75*
%LPD*%
G75*
G54D10*
X500000Y500000D03*
Y7500000D03*
X15500000Y500000D03*
Y7500000D03*
X17397500Y302500D03*
G54D11*
X508000Y1270000D03*
Y1778000D03*
Y1524000D03*
X4318000Y7366000D03*
X5080000D03*
X4826000D03*
X4572000D03*
X9652000Y4127500D03*
Y4889500D03*
X10414000Y4127500D03*
X10160000D03*
X9906000D03*
Y4889500D03*
X10160000D03*
X10414000D03*
X11176000Y4127500D03*
X10922000D03*
X10668000D03*
Y4889500D03*
X10922000D03*
X11176000D03*
X11938000Y4127500D03*
X11684000D03*
X11430000D03*
Y4889500D03*
X11684000D03*
X11938000D03*
X17397500Y2207500D03*
G54D12*
X508000Y2540000D03*
Y2794000D03*
Y3048000D03*
Y3302000D03*
Y3556000D03*
Y3810000D03*
Y4064000D03*
Y4318000D03*
Y4572000D03*
Y4826000D03*
X2032000Y508000D03*
X1778000D03*
X2794000D03*
X2540000D03*
X2286000D03*
X3302000D03*
X3048000D03*
X4381500Y1143000D03*
Y1397000D03*
Y1651000D03*
Y1905000D03*
Y2159000D03*
Y2413000D03*
Y2667000D03*
Y2921000D03*
Y3175000D03*
Y3429000D03*
Y3683000D03*
Y3937000D03*
X4635500Y1143000D03*
Y1397000D03*
Y1651000D03*
Y1905000D03*
Y2159000D03*
Y2413000D03*
Y2667000D03*
Y2921000D03*
Y3175000D03*
Y3429000D03*
Y3683000D03*
Y3937000D03*
X7429500Y1143000D03*
Y1397000D03*
Y1651000D03*
Y1905000D03*
Y2159000D03*
Y2413000D03*
Y2667000D03*
Y2921000D03*
Y3175000D03*
Y3429000D03*
Y3683000D03*
Y3937000D03*
Y4191000D03*
Y4445000D03*
Y4699000D03*
X7683500Y1143000D03*
Y1397000D03*
Y1651000D03*
Y1905000D03*
Y2159000D03*
Y2413000D03*
Y2667000D03*
Y2921000D03*
Y3175000D03*
Y3429000D03*
Y3683000D03*
Y3937000D03*
Y4191000D03*
Y4445000D03*
Y4699000D03*
X17397500Y2842500D03*
G54D13*
X1320800Y6350000D03*
X1676400Y5842000D03*
X2032000Y6350000D03*
X17397500Y937500D03*
G54D14*
X4381500Y4191000D03*
Y4445000D03*
Y4699000D03*
X4635500Y4191000D03*
Y4445000D03*
Y4699000D03*
X17397500Y4112500D03*
G54D15*
X6921500Y6858000D03*
Y7366000D03*
X14668500Y6350000D03*
Y7366000D03*
X17397500Y1572500D03*
G54D16*
X7747000Y698500D03*
X8636000Y2540000D03*
X8382000Y3683000D03*
Y4000500D03*
X9271000Y2159000D03*
X9144000Y2667000D03*
X9398000Y7182000D03*
Y6858000D03*
X10953700Y793800D03*
X11176000Y965600D03*
X10668000Y7182000D03*
Y6858000D03*
X12001500Y1143000D03*
X11728900Y806800D03*
X12001500Y3238500D03*
X12319000D03*
X12192000Y3810000D03*
X14097000Y1079500D03*
X14224000Y4381500D03*
X17397500Y3477500D03*
G54D17*
G01X-191500Y-400000D02*
X-254000Y0D01*
X-316500Y-400000D01*
X-191500D01*
G01X-250000Y0D02*
X-504000D01*
G01X-254000Y4572000D02*
Y0D01*
G01X-316500Y400000D02*
X-254000Y0D01*
X-191500Y400000D01*
X-316500D01*
G01X-460300Y167400D02*
X-433900Y191000D01*
X-418000Y218600D01*
X-412700Y254000D01*
X-423300Y289400D01*
X-444400Y317000D01*
X-481500Y336700D01*
X-523800Y340600D01*
X-566200Y332700D01*
X-592600Y313000D01*
X-613800Y285500D01*
X-619100Y257900D01*
X-613800Y230400D01*
X-592600Y195000D01*
X-730200Y206800D01*
Y313000D01*
G01X250000Y500000D02*
X-504000D01*
G01X-250000Y0D02*
X-504000D01*
G01X-254000Y254000D02*
Y0D01*
G01Y254000D02*
Y500000D01*
G01X-316500Y900000D02*
X-254000Y500000D01*
X-191500Y900000D01*
X-316500D01*
G01X-412700Y4414500D02*
X-418000Y4442100D01*
X-433900Y4473500D01*
X-460300Y4493200D01*
X-497400Y4501100D01*
X-534400Y4493200D01*
X-566200Y4469600D01*
X-582000Y4434200D01*
Y4394800D01*
X-592600Y4371200D01*
X-619100Y4351500D01*
X-656100Y4343600D01*
X-693200Y4355500D01*
X-719600Y4383000D01*
X-730200Y4414500D01*
X-719600Y4446000D01*
X-693200Y4473500D01*
X-656100Y4485400D01*
X-619100Y4477500D01*
X-592600Y4457800D01*
X-582000Y4434200D01*
Y4394800D01*
X-566200Y4359400D01*
X-534400Y4335800D01*
X-497400Y4327900D01*
X-460300Y4335800D01*
X-433900Y4355500D01*
X-418000Y4386900D01*
X-412700Y4414500D01*
G01X-730200Y4729400D02*
X-719600Y4697900D01*
X-693200Y4674300D01*
X-661400Y4658500D01*
X-619100Y4646700D01*
X-571400Y4642800D01*
X-523800Y4646700D01*
X-481500Y4658500D01*
X-449700Y4674300D01*
X-423300Y4697900D01*
X-412700Y4729400D01*
X-423300Y4760900D01*
X-449700Y4784500D01*
X-481500Y4800300D01*
X-523800Y4812100D01*
X-571400Y4816000D01*
X-619100Y4812100D01*
X-661400Y4800300D01*
X-693200Y4784500D01*
X-719600Y4760900D01*
X-730200Y4729400D01*
G01X-254000Y4572000D02*
Y8000000D01*
G01X-191500Y7100000D02*
X-254000Y7500000D01*
X-316500Y7100000D01*
X-191500D01*
G01X-250000Y8000000D02*
X-504000D01*
G01X-191500Y7600000D02*
X-254000Y8000000D01*
X-316500Y7600000D01*
X-191500D01*
G01X-460300Y7533400D02*
X-433900Y7557000D01*
X-418000Y7584600D01*
X-412700Y7620000D01*
X-423300Y7655400D01*
X-444400Y7683000D01*
X-481500Y7702700D01*
X-523800Y7706600D01*
X-566200Y7698700D01*
X-592600Y7679000D01*
X-613800Y7651500D01*
X-619100Y7623900D01*
X-613800Y7596400D01*
X-592600Y7561000D01*
X-730200Y7572800D01*
Y7679000D01*
G01X-250000Y8000000D02*
X-504000D01*
G01X250000Y7500000D02*
X-504000D01*
G01X-254000Y7620000D02*
Y7500000D01*
G01Y7620000D02*
Y8000000D01*
G01X-316500Y8400000D02*
X-254000Y8000000D01*
X-191500Y8400000D01*
X-316500D01*
G01X-400000Y8319500D02*
X0Y8382000D01*
X-400000Y8444500D01*
Y8319500D01*
G01X0Y0D02*
Y8000000D01*
X16000000D01*
Y0D01*
X0D01*
G01X500000Y7750000D02*
Y8632000D01*
G01X0Y8250000D02*
Y9394000D01*
G01X167400Y8588300D02*
X191000Y8561900D01*
X218600Y8546000D01*
X254000Y8540700D01*
X289400Y8551300D01*
X317000Y8572400D01*
X336700Y8609500D01*
X340600Y8651800D01*
X332700Y8694200D01*
X313000Y8720600D01*
X285500Y8741800D01*
X257900Y8747100D01*
X230400Y8741800D01*
X195000Y8720600D01*
X206800Y8858200D01*
X313000D01*
G01X0Y8250000D02*
Y8632000D01*
G01X254000Y8382000D02*
X0D01*
G01X254000D02*
X500000D01*
G01X900000Y8444500D02*
X500000Y8382000D01*
X900000Y8319500D01*
Y8444500D01*
G01X4826000Y9144000D02*
X0D01*
G01X400000Y9206500D02*
X0Y9144000D01*
X400000Y9081500D01*
Y9206500D01*
G01X4511100Y9302700D02*
Y9620200D01*
X4463900Y9556700D01*
G01Y9302700D02*
X4558300D01*
G01X4751200Y9435000D02*
X4778800Y9472000D01*
X4802400Y9493200D01*
X4833900Y9503800D01*
X4861400Y9493200D01*
X4881100Y9472000D01*
X4896900Y9440300D01*
X4900800Y9403200D01*
X4896900Y9371500D01*
X4881100Y9339700D01*
X4857500Y9313300D01*
X4829900Y9302700D01*
X4798400Y9313300D01*
X4770900Y9345000D01*
X4755100Y9392700D01*
X4751200Y9445600D01*
X4759100Y9514400D01*
X4770900Y9551400D01*
X4790600Y9588400D01*
X4818100Y9614900D01*
X4845700Y9620200D01*
X4873200Y9609600D01*
X4892900Y9583200D01*
G01X5140900Y9620200D02*
X5109400Y9609600D01*
X5085800Y9583200D01*
X5070000Y9551400D01*
X5058200Y9509100D01*
X5054300Y9461400D01*
X5058200Y9413800D01*
X5070000Y9371500D01*
X5085800Y9339700D01*
X5109400Y9313300D01*
X5140900Y9302700D01*
X5172400Y9313300D01*
X5196000Y9339700D01*
X5211800Y9371500D01*
X5223600Y9413800D01*
X5227500Y9461400D01*
X5223600Y9509100D01*
X5211800Y9551400D01*
X5196000Y9583200D01*
X5172400Y9609600D01*
X5140900Y9620200D01*
G01X4826000Y9144000D02*
X16000000D01*
G01X15500000Y7750000D02*
Y8632000D01*
G01X15661400Y8588300D02*
X15685000Y8561900D01*
X15712600Y8546000D01*
X15748000Y8540700D01*
X15783400Y8551300D01*
X15811000Y8572400D01*
X15830700Y8609500D01*
X15834600Y8651800D01*
X15826700Y8694200D01*
X15807000Y8720600D01*
X15779500Y8741800D01*
X15751900Y8747100D01*
X15724400Y8741800D01*
X15689000Y8720600D01*
X15700800Y8858200D01*
X15807000D01*
G01X15748000Y8382000D02*
X15500000D01*
G01X15100000Y8319500D02*
X15500000Y8382000D01*
X15100000Y8444500D01*
Y8319500D01*
G01X15748000Y8382000D02*
X16000000D01*
G01X15600000Y9081500D02*
X16000000Y9144000D01*
X15600000Y9206500D01*
Y9081500D01*
G01X16256000Y-15000D02*
Y6350000D01*
X28537000D01*
Y-15000D01*
X16256000D01*
G01Y1255000D02*
X28537000D01*
G01X16256000Y620000D02*
X28537000D01*
G01X16256000Y1890000D02*
X28537000D01*
G01X16256000Y2525000D02*
X28537000D01*
G01X16256000Y3160000D02*
X28537000D01*
G01X16256000Y3795000D02*
X28537000D01*
G01X16535400Y4588800D02*
Y4906300D01*
X16685000D01*
G01X16629900Y4752800D02*
X16535400D01*
G01X16877900Y4906300D02*
X16972300D01*
G01X16925100D02*
Y4588800D01*
G01X16877900D02*
X16972300D01*
G01X17263600Y4747500D02*
X17342400D01*
Y4652300D01*
X17318700Y4620500D01*
X17291200Y4599400D01*
X17251800Y4588800D01*
X17212400Y4599400D01*
X17184900Y4620500D01*
X17161300Y4652300D01*
X17145500Y4689300D01*
X17137600Y4731700D01*
Y4768700D01*
X17145500Y4800500D01*
X17161300Y4837500D01*
X17184900Y4869300D01*
X17208500Y4890400D01*
X17240000Y4906300D01*
X17267600D01*
X17299000Y4895700D01*
X17322700Y4874500D01*
G01X17468300Y4906300D02*
Y4678800D01*
X17484000Y4631100D01*
X17515500Y4599400D01*
X17554900Y4588800D01*
X17594300Y4599400D01*
X17625800Y4631100D01*
X17641500Y4678800D01*
Y4906300D01*
G01X17791100Y4588800D02*
Y4906300D01*
X17889500D01*
X17921000Y4890400D01*
X17940700Y4869300D01*
X17948500Y4826900D01*
X17940700Y4784600D01*
X17917000Y4758100D01*
X17889500Y4742300D01*
X17791100D01*
G01X17889500D02*
X17948500Y4588800D01*
G01X18263400D02*
X18106000D01*
Y4906300D01*
X18263400D01*
G01X18200400Y4752800D02*
X18106000D01*
G01X16256000Y5065000D02*
X28537000D01*
G01X16256000Y4430000D02*
X28537000D01*
G01X16256000Y5700000D02*
X28537000D01*
G01X16000000Y8250000D02*
Y9394000D01*
G01Y8250000D02*
Y8632000D01*
G01X16400000Y8444500D02*
X16000000Y8382000D01*
X16400000Y8319500D01*
Y8444500D01*
G01X18046900Y5223800D02*
X18145300Y5541300D01*
X18243700Y5223800D01*
G01X18208300Y5334900D02*
X18082300D01*
G01X18381500Y5541300D02*
Y5223800D01*
X18538900D01*
G01X18696400Y5541300D02*
Y5223800D01*
X18853800D01*
G01X19318300Y5541300D02*
Y5313800D01*
X19334000Y5266100D01*
X19365500Y5234400D01*
X19404900Y5223800D01*
X19444300Y5234400D01*
X19475800Y5266100D01*
X19491500Y5313800D01*
Y5541300D01*
G01X19629300Y5223800D02*
Y5541300D01*
X19810300Y5223800D01*
Y5541300D01*
G01X19987500D02*
X20081900D01*
G01X20034700D02*
Y5223800D01*
G01X19987500D02*
X20081900D01*
G01X20349600Y5541300D02*
Y5223800D01*
G01X20259100Y5541300D02*
X20440100D01*
G01X20581800Y5266100D02*
X20613300Y5239700D01*
X20648800Y5223800D01*
X20680200D01*
X20711700Y5239700D01*
X20735400Y5266100D01*
X20747200Y5303200D01*
X20739300Y5340200D01*
X20719600Y5372000D01*
X20684200Y5393100D01*
X20636900Y5403700D01*
X20609400Y5424900D01*
X20597600Y5461900D01*
X20605500Y5499000D01*
X20625100Y5525400D01*
X20652700Y5541300D01*
X20680200D01*
X20707800Y5530700D01*
X20731400Y5504300D01*
G01X21195900Y5223800D02*
X21294300Y5541300D01*
X21392700Y5223800D01*
G01X21357300Y5334900D02*
X21231300D01*
G01X21530500Y5223800D02*
Y5541300D01*
X21628900D01*
X21660400Y5525400D01*
X21680100Y5504300D01*
X21687900Y5461900D01*
X21680100Y5419600D01*
X21656400Y5393100D01*
X21628900Y5377300D01*
X21530500D01*
G01X21628900D02*
X21687900Y5223800D01*
G01X22002800D02*
X21845400D01*
Y5541300D01*
X22002800D01*
G01X21939800Y5387800D02*
X21845400D01*
G01X22506700Y5541300D02*
X22601100D01*
G01X22553900D02*
Y5223800D01*
G01X22506700D02*
X22601100D01*
G01X22778300D02*
Y5541300D01*
X22959300Y5223800D01*
Y5541300D01*
G01X23396200Y5223800D02*
Y5541300D01*
X23498600Y5276700D01*
X23601000Y5541300D01*
Y5223800D01*
G01X23766300Y5541300D02*
X23860700D01*
G01X23813500D02*
Y5223800D01*
G01X23766300D02*
X23860700D01*
G01X24049700Y5541300D02*
Y5223800D01*
X24207100D01*
G01X24364600Y5541300D02*
Y5223800D01*
X24522000D01*
G01X24711000Y5541300D02*
X24805400D01*
G01X24758200D02*
Y5223800D01*
G01X24711000D02*
X24805400D01*
G01X24970700D02*
Y5541300D01*
X25073100Y5276700D01*
X25175500Y5541300D01*
Y5223800D01*
G01X25466700D02*
X25309300D01*
Y5541300D01*
X25466700D01*
G01X25403700Y5387800D02*
X25309300D01*
G01X25702900Y5541300D02*
Y5223800D01*
G01X25612400Y5541300D02*
X25793400D01*
G01X26096500Y5223800D02*
X25939100D01*
Y5541300D01*
X26096500D01*
G01X26033500Y5387800D02*
X25939100D01*
G01X26254000Y5223800D02*
Y5541300D01*
X26352400D01*
X26383900Y5525400D01*
X26403600Y5504300D01*
X26411400Y5461900D01*
X26403600Y5419600D01*
X26379900Y5393100D01*
X26352400Y5377300D01*
X26254000D01*
G01X26352400D02*
X26411400Y5223800D01*
G01X26564900Y5266100D02*
X26596400Y5239700D01*
X26631900Y5223800D01*
X26663300D01*
X26694800Y5239700D01*
X26718500Y5266100D01*
X26730300Y5303200D01*
X26722400Y5340200D01*
X26702700Y5372000D01*
X26667300Y5393100D01*
X26620000Y5403700D01*
X26592500Y5424900D01*
X26580700Y5461900D01*
X26588600Y5499000D01*
X26608200Y5525400D01*
X26635800Y5541300D01*
X26663300D01*
X26690900Y5530700D01*
X26714500Y5504300D01*
G01X18539000Y5065000D02*
Y-15000D01*
G01X18373600Y5873800D02*
Y6191300D01*
X18452300D01*
X18483800Y6175400D01*
X18507400Y6154300D01*
X18527100Y6122500D01*
X18542900Y6085500D01*
X18546800Y6032500D01*
X18542900Y5979600D01*
X18527100Y5942600D01*
X18507400Y5910800D01*
X18483800Y5889700D01*
X18452300Y5873800D01*
X18373600D01*
G01X18696400D02*
Y6191300D01*
X18794800D01*
X18826300Y6175400D01*
X18846000Y6154300D01*
X18853800Y6111900D01*
X18846000Y6069600D01*
X18822300Y6043100D01*
X18794800Y6027300D01*
X18696400D01*
G01X18794800D02*
X18853800Y5873800D01*
G01X19042800Y6191300D02*
X19137200D01*
G01X19090000D02*
Y5873800D01*
G01X19042800D02*
X19137200D01*
G01X19326200Y6191300D02*
Y5873800D01*
X19483600D01*
G01X19641100Y6191300D02*
Y5873800D01*
X19798500D01*
G01X20436200Y6164800D02*
X20412600Y6180700D01*
X20385000Y6191300D01*
X20353500D01*
X20318100Y6175400D01*
X20290600Y6149000D01*
X20270900Y6117200D01*
X20255100Y6064300D01*
X20251200Y6016700D01*
X20259100Y5969000D01*
X20270900Y5937300D01*
X20294500Y5905500D01*
X20322000Y5884400D01*
X20349600Y5873800D01*
X20377200D01*
X20404700Y5884400D01*
X20428300Y5900300D01*
X20448000Y5921400D01*
G01X20581800Y5873800D02*
Y6191300D01*
G01X20747200D02*
Y5873800D01*
G01Y6032500D02*
X20581800D01*
G01X20881000Y5873800D02*
X20979400Y6191300D01*
X21077800Y5873800D01*
G01X21042400Y5984900D02*
X20916400D01*
G01X21215600Y5873800D02*
Y6191300D01*
X21314000D01*
X21345500Y6175400D01*
X21365200Y6154300D01*
X21373000Y6111900D01*
X21365200Y6069600D01*
X21341500Y6043100D01*
X21314000Y6027300D01*
X21215600D01*
G01X21314000D02*
X21373000Y5873800D01*
G01X21609200Y6191300D02*
Y5873800D01*
G01X21518700Y6191300D02*
X21699700D01*
G01X21924100Y5863200D02*
X21916200Y5868500D01*
Y5879100D01*
X21924100Y5884400D01*
X21932000Y5879100D01*
Y5868500D01*
X21924100Y5863200D01*
G01Y6006100D02*
X21916200Y6011400D01*
Y6022000D01*
X21924100Y6027300D01*
X21932000Y6022000D01*
Y6011400D01*
X21924100Y6006100D01*
G01X22553900Y6191300D02*
Y5873800D01*
G01X22463400Y6191300D02*
X22644400D01*
G01X22868800Y5873800D02*
X22837300Y5879100D01*
X22809800Y5900300D01*
X22786100Y5932000D01*
X22770400Y5969000D01*
X22762500Y6011400D01*
Y6053700D01*
X22770400Y6096100D01*
X22786100Y6133100D01*
X22809800Y6164800D01*
X22837300Y6186000D01*
X22868800Y6191300D01*
X22900300Y6186000D01*
X22927800Y6164800D01*
X22951500Y6133100D01*
X22967200Y6096100D01*
X22975100Y6053700D01*
Y6011400D01*
X22967200Y5969000D01*
X22951500Y5932000D01*
X22927800Y5900300D01*
X22900300Y5879100D01*
X22868800Y5873800D01*
G01X23105000D02*
Y6191300D01*
X23199400D01*
X23230900Y6175400D01*
X23254600Y6138400D01*
X23262400Y6096100D01*
X23254600Y6053700D01*
X23234900Y6022000D01*
X23199400Y6006100D01*
X23105000D01*
G01X23813500Y6191300D02*
Y5873800D01*
G01X23758400Y6085500D02*
X23868600D01*
G01X24128400Y5873800D02*
X24104800Y5879100D01*
X24081200Y5900300D01*
X24065400Y5937300D01*
X24057500Y5979600D01*
X24065400Y6022000D01*
X24081200Y6059000D01*
X24104800Y6080200D01*
X24128400Y6085500D01*
X24152000Y6080200D01*
X24175600Y6059000D01*
X24191400Y6022000D01*
X24195300Y5979600D01*
X24191400Y5937300D01*
X24175600Y5900300D01*
X24152000Y5879100D01*
X24128400Y5873800D01*
G01X24789700Y6043100D02*
X24805400Y6059000D01*
X24817200Y6085500D01*
X24825100Y6122500D01*
X24817200Y6154300D01*
X24801500Y6175400D01*
X24773900Y6191300D01*
X24667700D01*
Y5873800D01*
X24797600D01*
X24825100Y5895000D01*
X24840900Y5926700D01*
X24848700Y5963800D01*
X24840900Y6000800D01*
X24817200Y6032500D01*
X24789700Y6043100D01*
X24667700D01*
G01X25073100Y5873800D02*
X25041600Y5879100D01*
X25014100Y5900300D01*
X24990400Y5932000D01*
X24974700Y5969000D01*
X24966800Y6011400D01*
Y6053700D01*
X24974700Y6096100D01*
X24990400Y6133100D01*
X25014100Y6164800D01*
X25041600Y6186000D01*
X25073100Y6191300D01*
X25104600Y6186000D01*
X25132100Y6164800D01*
X25155800Y6133100D01*
X25171500Y6096100D01*
X25179400Y6053700D01*
Y6011400D01*
X25171500Y5969000D01*
X25155800Y5932000D01*
X25132100Y5900300D01*
X25104600Y5879100D01*
X25073100Y5873800D01*
G01X25388000Y6191300D02*
Y5873800D01*
G01X25297500Y6191300D02*
X25478500D01*
G01X25702900D02*
Y5873800D01*
G01X25612400Y6191300D02*
X25793400D01*
G01X26017800Y5873800D02*
X25986300Y5879100D01*
X25958800Y5900300D01*
X25935100Y5932000D01*
X25919400Y5969000D01*
X25911500Y6011400D01*
Y6053700D01*
X25919400Y6096100D01*
X25935100Y6133100D01*
X25958800Y6164800D01*
X25986300Y6186000D01*
X26017800Y6191300D01*
X26049300Y6186000D01*
X26076800Y6164800D01*
X26100500Y6133100D01*
X26116200Y6096100D01*
X26124100Y6053700D01*
Y6011400D01*
X26116200Y5969000D01*
X26100500Y5932000D01*
X26076800Y5900300D01*
X26049300Y5879100D01*
X26017800Y5873800D01*
G01X26230300D02*
Y6191300D01*
X26332700Y5926700D01*
X26435100Y6191300D01*
Y5873800D01*
G01X20223700Y207200D02*
X20247300Y170200D01*
X20278800Y149000D01*
X20314200Y143700D01*
X20345700Y149000D01*
X20377200Y175400D01*
X20396900Y207200D01*
X20400800Y238900D01*
X20393000Y276000D01*
X20365400Y302400D01*
X20337900Y313000D01*
X20302400D01*
G01X20337900D02*
X20361500Y328900D01*
X20381200Y355400D01*
X20389000Y387100D01*
X20381200Y418900D01*
X20361500Y445300D01*
X20326000Y461200D01*
X20290600Y455900D01*
X20255200Y434700D01*
G01X20625200Y133100D02*
X20617300Y138400D01*
Y149000D01*
X20625200Y154300D01*
X20633100Y149000D01*
Y138400D01*
X20625200Y133100D01*
G01X20873200Y180700D02*
X20900700Y154300D01*
X20932200Y143700D01*
X20963700Y154300D01*
X20991300Y186000D01*
X21011000Y233700D01*
X21018800Y281300D01*
Y339500D01*
X21011000Y387100D01*
X20991300Y429400D01*
X20967700Y450600D01*
X20940100Y461200D01*
X20908600Y450600D01*
X20885000Y429400D01*
X20869200Y397700D01*
X20861400Y355400D01*
X20869200Y318300D01*
X20888900Y281300D01*
X20912500Y260100D01*
X20940100Y254800D01*
X20971600Y265400D01*
X20995200Y291900D01*
X21018800Y339500D01*
G01X21180200Y276000D02*
X21207800Y313000D01*
X21231400Y334200D01*
X21262900Y344800D01*
X21290400Y334200D01*
X21310100Y313000D01*
X21325900Y281300D01*
X21329800Y244200D01*
X21325900Y212500D01*
X21310100Y180700D01*
X21286500Y154300D01*
X21258900Y143700D01*
X21227400Y154300D01*
X21199900Y186000D01*
X21184100Y233700D01*
X21180200Y286600D01*
X21188100Y355400D01*
X21199900Y392400D01*
X21219600Y429400D01*
X21247100Y455900D01*
X21274700Y461200D01*
X21302200Y450600D01*
X21321900Y424200D01*
G01X21495100Y408300D02*
X21518700Y440000D01*
X21546300Y455900D01*
X21577800Y461200D01*
X21617100Y450600D01*
X21644700Y424200D01*
X21652600Y392400D01*
X21648600Y360700D01*
X21632900Y334200D01*
X21554200Y281300D01*
X21518700Y244200D01*
X21495100Y191300D01*
X21487200Y143700D01*
X21652600D01*
G01X20310300Y1413700D02*
Y1731200D01*
X20263100Y1667700D01*
G01Y1413700D02*
X20357500D01*
G01X20625200Y1403100D02*
X20617300Y1408400D01*
Y1419000D01*
X20625200Y1424300D01*
X20633100Y1419000D01*
Y1408400D01*
X20625200Y1403100D01*
G01X20940100Y1731200D02*
X20908600Y1720600D01*
X20885000Y1694200D01*
X20869200Y1662400D01*
X20857400Y1620100D01*
X20853500Y1572400D01*
X20857400Y1524800D01*
X20869200Y1482500D01*
X20885000Y1450700D01*
X20908600Y1424300D01*
X20940100Y1413700D01*
X20971600Y1424300D01*
X20995200Y1450700D01*
X21011000Y1482500D01*
X21022800Y1524800D01*
X21026700Y1572400D01*
X21022800Y1620100D01*
X21011000Y1662400D01*
X20995200Y1694200D01*
X20971600Y1720600D01*
X20940100Y1731200D01*
G01X21180200Y1546000D02*
X21207800Y1583000D01*
X21231400Y1604200D01*
X21262900Y1614800D01*
X21290400Y1604200D01*
X21310100Y1583000D01*
X21325900Y1551300D01*
X21329800Y1514200D01*
X21325900Y1482500D01*
X21310100Y1450700D01*
X21286500Y1424300D01*
X21258900Y1413700D01*
X21227400Y1424300D01*
X21199900Y1456000D01*
X21184100Y1503700D01*
X21180200Y1556600D01*
X21188100Y1625400D01*
X21199900Y1662400D01*
X21219600Y1699400D01*
X21247100Y1725900D01*
X21274700Y1731200D01*
X21302200Y1720600D01*
X21321900Y1694200D01*
G01X21562000Y1413700D02*
X21569900Y1482500D01*
X21581700Y1540700D01*
X21597500Y1593600D01*
X21617100Y1651800D01*
X21648600Y1731200D01*
X21491200D01*
G01X20223700Y842200D02*
X20247300Y805200D01*
X20278800Y784000D01*
X20314200Y778700D01*
X20345700Y784000D01*
X20377200Y810400D01*
X20396900Y842200D01*
X20400800Y873900D01*
X20393000Y911000D01*
X20365400Y937400D01*
X20337900Y948000D01*
X20302400D01*
G01X20337900D02*
X20361500Y963900D01*
X20381200Y990400D01*
X20389000Y1022100D01*
X20381200Y1053900D01*
X20361500Y1080300D01*
X20326000Y1096200D01*
X20290600Y1090900D01*
X20255200Y1069700D01*
G01X20625200Y768100D02*
X20617300Y773400D01*
Y784000D01*
X20625200Y789300D01*
X20633100Y784000D01*
Y773400D01*
X20625200Y768100D01*
G01X20940100Y1096200D02*
X20908600Y1085600D01*
X20885000Y1059200D01*
X20869200Y1027400D01*
X20857400Y985100D01*
X20853500Y937400D01*
X20857400Y889800D01*
X20869200Y847500D01*
X20885000Y815700D01*
X20908600Y789300D01*
X20940100Y778700D01*
X20971600Y789300D01*
X20995200Y815700D01*
X21011000Y847500D01*
X21022800Y889800D01*
X21026700Y937400D01*
X21022800Y985100D01*
X21011000Y1027400D01*
X20995200Y1059200D01*
X20971600Y1085600D01*
X20940100Y1096200D01*
G01X21302200Y778700D02*
Y1096200D01*
X21156600Y868700D01*
X21353400D01*
G01X21569900Y778700D02*
X21597500Y784000D01*
X21628900Y799900D01*
X21648600Y826300D01*
X21656500Y863400D01*
X21648600Y900400D01*
X21625000Y932200D01*
X21589600Y948000D01*
X21550200D01*
X21526600Y958600D01*
X21506900Y985100D01*
X21499000Y1022100D01*
X21510900Y1059200D01*
X21538400Y1085600D01*
X21569900Y1096200D01*
X21601400Y1085600D01*
X21628900Y1059200D01*
X21640800Y1022100D01*
X21632900Y985100D01*
X21613200Y958600D01*
X21589600Y948000D01*
X21550200D01*
X21514800Y932200D01*
X21491200Y900400D01*
X21483300Y863400D01*
X21491200Y826300D01*
X21510900Y799900D01*
X21542300Y784000D01*
X21569900Y778700D01*
G01X20310300Y2366200D02*
X20278800Y2355600D01*
X20255200Y2329200D01*
X20239400Y2297400D01*
X20227600Y2255100D01*
X20223700Y2207400D01*
X20227600Y2159800D01*
X20239400Y2117500D01*
X20255200Y2085700D01*
X20278800Y2059300D01*
X20310300Y2048700D01*
X20341800Y2059300D01*
X20365400Y2085700D01*
X20381200Y2117500D01*
X20393000Y2159800D01*
X20396900Y2207400D01*
X20393000Y2255100D01*
X20381200Y2297400D01*
X20365400Y2329200D01*
X20341800Y2355600D01*
X20310300Y2366200D01*
G01X20625200Y2038100D02*
X20617300Y2043400D01*
Y2054000D01*
X20625200Y2059300D01*
X20633100Y2054000D01*
Y2043400D01*
X20625200Y2038100D01*
G01X20873200Y2085700D02*
X20900700Y2059300D01*
X20932200Y2048700D01*
X20963700Y2059300D01*
X20991300Y2091000D01*
X21011000Y2138700D01*
X21018800Y2186300D01*
Y2244500D01*
X21011000Y2292100D01*
X20991300Y2334400D01*
X20967700Y2355600D01*
X20940100Y2366200D01*
X20908600Y2355600D01*
X20885000Y2334400D01*
X20869200Y2302700D01*
X20861400Y2260400D01*
X20869200Y2223300D01*
X20888900Y2186300D01*
X20912500Y2165100D01*
X20940100Y2159800D01*
X20971600Y2170400D01*
X20995200Y2196900D01*
X21018800Y2244500D01*
G01X21255000Y2048700D02*
Y2366200D01*
X21207800Y2302700D01*
G01Y2048700D02*
X21302200D01*
G01X21617100D02*
Y2366200D01*
X21471500Y2138700D01*
X21668300D01*
G01X20310300Y3001200D02*
X20278800Y2990600D01*
X20255200Y2964200D01*
X20239400Y2932400D01*
X20227600Y2890100D01*
X20223700Y2842400D01*
X20227600Y2794800D01*
X20239400Y2752500D01*
X20255200Y2720700D01*
X20278800Y2694300D01*
X20310300Y2683700D01*
X20341800Y2694300D01*
X20365400Y2720700D01*
X20381200Y2752500D01*
X20393000Y2794800D01*
X20396900Y2842400D01*
X20393000Y2890100D01*
X20381200Y2932400D01*
X20365400Y2964200D01*
X20341800Y2990600D01*
X20310300Y3001200D01*
G01X20625200Y2673100D02*
X20617300Y2678400D01*
Y2689000D01*
X20625200Y2694300D01*
X20633100Y2689000D01*
Y2678400D01*
X20625200Y2673100D01*
G01X20940100Y2683700D02*
X20967700Y2689000D01*
X20999100Y2704900D01*
X21018800Y2731300D01*
X21026700Y2768400D01*
X21018800Y2805400D01*
X20995200Y2837200D01*
X20959800Y2853000D01*
X20920400D01*
X20896800Y2863600D01*
X20877100Y2890100D01*
X20869200Y2927100D01*
X20881100Y2964200D01*
X20908600Y2990600D01*
X20940100Y3001200D01*
X20971600Y2990600D01*
X20999100Y2964200D01*
X21011000Y2927100D01*
X21003100Y2890100D01*
X20983400Y2863600D01*
X20959800Y2853000D01*
X20920400D01*
X20885000Y2837200D01*
X20861400Y2805400D01*
X20853500Y2768400D01*
X20861400Y2731300D01*
X20881100Y2704900D01*
X20912500Y2689000D01*
X20940100Y2683700D01*
G01X21255000D02*
X21282600Y2689000D01*
X21314000Y2704900D01*
X21333700Y2731300D01*
X21341600Y2768400D01*
X21333700Y2805400D01*
X21310100Y2837200D01*
X21274700Y2853000D01*
X21235300D01*
X21211700Y2863600D01*
X21192000Y2890100D01*
X21184100Y2927100D01*
X21196000Y2964200D01*
X21223500Y2990600D01*
X21255000Y3001200D01*
X21286500Y2990600D01*
X21314000Y2964200D01*
X21325900Y2927100D01*
X21318000Y2890100D01*
X21298300Y2863600D01*
X21274700Y2853000D01*
X21235300D01*
X21199900Y2837200D01*
X21176300Y2805400D01*
X21168400Y2768400D01*
X21176300Y2731300D01*
X21196000Y2704900D01*
X21227400Y2689000D01*
X21255000Y2683700D01*
G01X21503000Y2720700D02*
X21530500Y2694300D01*
X21562000Y2683700D01*
X21593500Y2694300D01*
X21621100Y2726000D01*
X21640800Y2773700D01*
X21648600Y2821300D01*
Y2879500D01*
X21640800Y2927100D01*
X21621100Y2969400D01*
X21597500Y2990600D01*
X21569900Y3001200D01*
X21538400Y2990600D01*
X21514800Y2969400D01*
X21499000Y2937700D01*
X21491200Y2895400D01*
X21499000Y2858300D01*
X21518700Y2821300D01*
X21542300Y2800100D01*
X21569900Y2794800D01*
X21601400Y2805400D01*
X21625000Y2831900D01*
X21648600Y2879500D01*
G01X20310300Y3636300D02*
X20278800Y3625700D01*
X20255200Y3599300D01*
X20239400Y3567500D01*
X20227600Y3525200D01*
X20223700Y3477500D01*
X20227600Y3429900D01*
X20239400Y3387600D01*
X20255200Y3355800D01*
X20278800Y3329400D01*
X20310300Y3318800D01*
X20341800Y3329400D01*
X20365400Y3355800D01*
X20381200Y3387600D01*
X20393000Y3429900D01*
X20396900Y3477500D01*
X20393000Y3525200D01*
X20381200Y3567500D01*
X20365400Y3599300D01*
X20341800Y3625700D01*
X20310300Y3636300D01*
G01X20625200Y3308200D02*
X20617300Y3313500D01*
Y3324100D01*
X20625200Y3329400D01*
X20633100Y3324100D01*
Y3313500D01*
X20625200Y3308200D01*
G01X20940100Y3318800D02*
X20967700Y3324100D01*
X20999100Y3340000D01*
X21018800Y3366400D01*
X21026700Y3403500D01*
X21018800Y3440500D01*
X20995200Y3472300D01*
X20959800Y3488100D01*
X20920400D01*
X20896800Y3498700D01*
X20877100Y3525200D01*
X20869200Y3562200D01*
X20881100Y3599300D01*
X20908600Y3625700D01*
X20940100Y3636300D01*
X20971600Y3625700D01*
X20999100Y3599300D01*
X21011000Y3562200D01*
X21003100Y3525200D01*
X20983400Y3498700D01*
X20959800Y3488100D01*
X20920400D01*
X20885000Y3472300D01*
X20861400Y3440500D01*
X20853500Y3403500D01*
X20861400Y3366400D01*
X20881100Y3340000D01*
X20912500Y3324100D01*
X20940100Y3318800D01*
G01X21255000D02*
Y3636300D01*
X21207800Y3572800D01*
G01Y3318800D02*
X21302200D01*
G01X21483300Y3382300D02*
X21506900Y3345300D01*
X21538400Y3324100D01*
X21573800Y3318800D01*
X21605300Y3324100D01*
X21636800Y3350500D01*
X21656500Y3382300D01*
X21660400Y3414000D01*
X21652600Y3451100D01*
X21625000Y3477500D01*
X21597500Y3488100D01*
X21562000D01*
G01X21597500D02*
X21621100Y3504000D01*
X21640800Y3530500D01*
X21648600Y3562200D01*
X21640800Y3594000D01*
X21621100Y3620400D01*
X21585600Y3636300D01*
X21550200Y3631000D01*
X21514800Y3609800D01*
G01X20310300Y4271300D02*
X20278800Y4260700D01*
X20255200Y4234300D01*
X20239400Y4202500D01*
X20227600Y4160200D01*
X20223700Y4112500D01*
X20227600Y4064900D01*
X20239400Y4022600D01*
X20255200Y3990800D01*
X20278800Y3964400D01*
X20310300Y3953800D01*
X20341800Y3964400D01*
X20365400Y3990800D01*
X20381200Y4022600D01*
X20393000Y4064900D01*
X20396900Y4112500D01*
X20393000Y4160200D01*
X20381200Y4202500D01*
X20365400Y4234300D01*
X20341800Y4260700D01*
X20310300Y4271300D01*
G01X20625200Y3943200D02*
X20617300Y3948500D01*
Y3959100D01*
X20625200Y3964400D01*
X20633100Y3959100D01*
Y3948500D01*
X20625200Y3943200D01*
G01X20940100Y3953800D02*
X20967700Y3959100D01*
X20999100Y3975000D01*
X21018800Y4001400D01*
X21026700Y4038500D01*
X21018800Y4075500D01*
X20995200Y4107300D01*
X20959800Y4123100D01*
X20920400D01*
X20896800Y4133700D01*
X20877100Y4160200D01*
X20869200Y4197200D01*
X20881100Y4234300D01*
X20908600Y4260700D01*
X20940100Y4271300D01*
X20971600Y4260700D01*
X20999100Y4234300D01*
X21011000Y4197200D01*
X21003100Y4160200D01*
X20983400Y4133700D01*
X20959800Y4123100D01*
X20920400D01*
X20885000Y4107300D01*
X20861400Y4075500D01*
X20853500Y4038500D01*
X20861400Y4001400D01*
X20881100Y3975000D01*
X20912500Y3959100D01*
X20940100Y3953800D01*
G01X21255000D02*
Y4271300D01*
X21207800Y4207800D01*
G01Y3953800D02*
X21302200D01*
G01X21483300Y4017300D02*
X21506900Y3980300D01*
X21538400Y3959100D01*
X21573800Y3953800D01*
X21605300Y3959100D01*
X21636800Y3985500D01*
X21656500Y4017300D01*
X21660400Y4049000D01*
X21652600Y4086100D01*
X21625000Y4112500D01*
X21597500Y4123100D01*
X21562000D01*
G01X21597500D02*
X21621100Y4139000D01*
X21640800Y4165500D01*
X21648600Y4197200D01*
X21640800Y4229000D01*
X21621100Y4255400D01*
X21585600Y4271300D01*
X21550200Y4266000D01*
X21514800Y4244800D01*
G01X20385000Y4631100D02*
X20416500Y4604700D01*
X20452000Y4588800D01*
X20483400D01*
X20514900Y4604700D01*
X20538600Y4631100D01*
X20550400Y4668200D01*
X20542500Y4705200D01*
X20522800Y4737000D01*
X20487400Y4758100D01*
X20440100Y4768700D01*
X20412600Y4789900D01*
X20400800Y4826900D01*
X20408700Y4864000D01*
X20428300Y4890400D01*
X20455900Y4906300D01*
X20483400D01*
X20511000Y4895700D01*
X20534600Y4869300D01*
G01X20735400Y4906300D02*
X20829800D01*
G01X20782600D02*
Y4588800D01*
G01X20735400D02*
X20829800D01*
G01X21022700Y4906300D02*
X21172300D01*
X21022700Y4588800D01*
X21172300D01*
G01X21491100D02*
X21333700D01*
Y4906300D01*
X21491100D01*
G01X21428100Y4752800D02*
X21333700D01*
G01X23341200Y5065000D02*
Y-15000D01*
G01X23447400Y143700D02*
Y461200D01*
X23628400Y143700D01*
Y461200D01*
G01X23852800Y143700D02*
X23821300Y149000D01*
X23793800Y170200D01*
X23770100Y201900D01*
X23754400Y238900D01*
X23746500Y281300D01*
Y323600D01*
X23754400Y366000D01*
X23770100Y403000D01*
X23793800Y434700D01*
X23821300Y455900D01*
X23852800Y461200D01*
X23884300Y455900D01*
X23911800Y434700D01*
X23935500Y403000D01*
X23951200Y366000D01*
X23959100Y323600D01*
Y281300D01*
X23951200Y238900D01*
X23935500Y201900D01*
X23911800Y170200D01*
X23884300Y149000D01*
X23852800Y143700D01*
G01X24077200D02*
Y461200D01*
X24258200Y143700D01*
Y461200D01*
G01X24431400Y249500D02*
X24533800D01*
G01X24718800Y143700D02*
Y461200D01*
X24813200D01*
X24844700Y445300D01*
X24868400Y408300D01*
X24876200Y366000D01*
X24868400Y323600D01*
X24848700Y291900D01*
X24813200Y276000D01*
X24718800D01*
G01X25033700Y461200D02*
Y143700D01*
X25191100D01*
G01X25328900D02*
X25427300Y461200D01*
X25525700Y143700D01*
G01X25490300Y254800D02*
X25364300D01*
G01X25742200Y461200D02*
Y143700D01*
G01X25651700Y461200D02*
X25832700D01*
G01X26135800Y143700D02*
X25978400D01*
Y461200D01*
X26135800D01*
G01X26072800Y307700D02*
X25978400D01*
G01X26285400Y143700D02*
Y461200D01*
X26364100D01*
X26395600Y445300D01*
X26419200Y424200D01*
X26438900Y392400D01*
X26454700Y355400D01*
X26458600Y302400D01*
X26454700Y249500D01*
X26438900Y212500D01*
X26419200Y180700D01*
X26395600Y159600D01*
X26364100Y143700D01*
X26285400D01*
G01X24089000Y1413700D02*
Y1731200D01*
X24183400D01*
X24214900Y1715300D01*
X24238600Y1678300D01*
X24246400Y1636000D01*
X24238600Y1593600D01*
X24218900Y1561900D01*
X24183400Y1546000D01*
X24089000D01*
G01X24403900Y1731200D02*
Y1413700D01*
X24561300D01*
G01X24699100D02*
X24797500Y1731200D01*
X24895900Y1413700D01*
G01X24860500Y1524800D02*
X24734500D01*
G01X25112400Y1731200D02*
Y1413700D01*
G01X25021900Y1731200D02*
X25202900D01*
G01X25506000Y1413700D02*
X25348600D01*
Y1731200D01*
X25506000D01*
G01X25443000Y1577700D02*
X25348600D01*
G01X25655600Y1413700D02*
Y1731200D01*
X25734300D01*
X25765800Y1715300D01*
X25789400Y1694200D01*
X25809100Y1662400D01*
X25824900Y1625400D01*
X25828800Y1572400D01*
X25824900Y1519500D01*
X25809100Y1482500D01*
X25789400Y1450700D01*
X25765800Y1429600D01*
X25734300Y1413700D01*
X25655600D01*
G01X24089000Y778700D02*
Y1096200D01*
X24183400D01*
X24214900Y1080300D01*
X24238600Y1043300D01*
X24246400Y1001000D01*
X24238600Y958600D01*
X24218900Y926900D01*
X24183400Y911000D01*
X24089000D01*
G01X24403900Y1096200D02*
Y778700D01*
X24561300D01*
G01X24699100D02*
X24797500Y1096200D01*
X24895900Y778700D01*
G01X24860500Y889800D02*
X24734500D01*
G01X25112400Y1096200D02*
Y778700D01*
G01X25021900Y1096200D02*
X25202900D01*
G01X25506000Y778700D02*
X25348600D01*
Y1096200D01*
X25506000D01*
G01X25443000Y942700D02*
X25348600D01*
G01X25655600Y778700D02*
Y1096200D01*
X25734300D01*
X25765800Y1080300D01*
X25789400Y1059200D01*
X25809100Y1027400D01*
X25824900Y990400D01*
X25828800Y937400D01*
X25824900Y884500D01*
X25809100Y847500D01*
X25789400Y815700D01*
X25765800Y794600D01*
X25734300Y778700D01*
X25655600D01*
G01X24089000Y2048700D02*
Y2366200D01*
X24183400D01*
X24214900Y2350300D01*
X24238600Y2313300D01*
X24246400Y2271000D01*
X24238600Y2228600D01*
X24218900Y2196900D01*
X24183400Y2181000D01*
X24089000D01*
G01X24403900Y2366200D02*
Y2048700D01*
X24561300D01*
G01X24699100D02*
X24797500Y2366200D01*
X24895900Y2048700D01*
G01X24860500Y2159800D02*
X24734500D01*
G01X25112400Y2366200D02*
Y2048700D01*
G01X25021900Y2366200D02*
X25202900D01*
G01X25506000Y2048700D02*
X25348600D01*
Y2366200D01*
X25506000D01*
G01X25443000Y2212700D02*
X25348600D01*
G01X25655600Y2048700D02*
Y2366200D01*
X25734300D01*
X25765800Y2350300D01*
X25789400Y2329200D01*
X25809100Y2297400D01*
X25824900Y2260400D01*
X25828800Y2207400D01*
X25824900Y2154500D01*
X25809100Y2117500D01*
X25789400Y2085700D01*
X25765800Y2064600D01*
X25734300Y2048700D01*
X25655600D01*
G01X24089000Y2683700D02*
Y3001200D01*
X24183400D01*
X24214900Y2985300D01*
X24238600Y2948300D01*
X24246400Y2906000D01*
X24238600Y2863600D01*
X24218900Y2831900D01*
X24183400Y2816000D01*
X24089000D01*
G01X24403900Y3001200D02*
Y2683700D01*
X24561300D01*
G01X24699100D02*
X24797500Y3001200D01*
X24895900Y2683700D01*
G01X24860500Y2794800D02*
X24734500D01*
G01X25112400Y3001200D02*
Y2683700D01*
G01X25021900Y3001200D02*
X25202900D01*
G01X25506000Y2683700D02*
X25348600D01*
Y3001200D01*
X25506000D01*
G01X25443000Y2847700D02*
X25348600D01*
G01X25655600Y2683700D02*
Y3001200D01*
X25734300D01*
X25765800Y2985300D01*
X25789400Y2964200D01*
X25809100Y2932400D01*
X25824900Y2895400D01*
X25828800Y2842400D01*
X25824900Y2789500D01*
X25809100Y2752500D01*
X25789400Y2720700D01*
X25765800Y2699600D01*
X25734300Y2683700D01*
X25655600D01*
G01X24089000Y3318800D02*
Y3636300D01*
X24183400D01*
X24214900Y3620400D01*
X24238600Y3583400D01*
X24246400Y3541100D01*
X24238600Y3498700D01*
X24218900Y3467000D01*
X24183400Y3451100D01*
X24089000D01*
G01X24403900Y3636300D02*
Y3318800D01*
X24561300D01*
G01X24699100D02*
X24797500Y3636300D01*
X24895900Y3318800D01*
G01X24860500Y3429900D02*
X24734500D01*
G01X25112400Y3636300D02*
Y3318800D01*
G01X25021900Y3636300D02*
X25202900D01*
G01X25506000Y3318800D02*
X25348600D01*
Y3636300D01*
X25506000D01*
G01X25443000Y3482800D02*
X25348600D01*
G01X25655600Y3318800D02*
Y3636300D01*
X25734300D01*
X25765800Y3620400D01*
X25789400Y3599300D01*
X25809100Y3567500D01*
X25824900Y3530500D01*
X25828800Y3477500D01*
X25824900Y3424600D01*
X25809100Y3387600D01*
X25789400Y3355800D01*
X25765800Y3334700D01*
X25734300Y3318800D01*
X25655600D01*
G01X24089000Y3953800D02*
Y4271300D01*
X24183400D01*
X24214900Y4255400D01*
X24238600Y4218400D01*
X24246400Y4176100D01*
X24238600Y4133700D01*
X24218900Y4102000D01*
X24183400Y4086100D01*
X24089000D01*
G01X24403900Y4271300D02*
Y3953800D01*
X24561300D01*
G01X24699100D02*
X24797500Y4271300D01*
X24895900Y3953800D01*
G01X24860500Y4064900D02*
X24734500D01*
G01X25112400Y4271300D02*
Y3953800D01*
G01X25021900Y4271300D02*
X25202900D01*
G01X25506000Y3953800D02*
X25348600D01*
Y4271300D01*
X25506000D01*
G01X25443000Y4117800D02*
X25348600D01*
G01X25655600Y3953800D02*
Y4271300D01*
X25734300D01*
X25765800Y4255400D01*
X25789400Y4234300D01*
X25809100Y4202500D01*
X25824900Y4165500D01*
X25828800Y4112500D01*
X25824900Y4059600D01*
X25809100Y4022600D01*
X25789400Y3990800D01*
X25765800Y3969700D01*
X25734300Y3953800D01*
X25655600D01*
G01X24089000Y4588800D02*
Y4906300D01*
X24183400D01*
X24214900Y4890400D01*
X24238600Y4853400D01*
X24246400Y4811100D01*
X24238600Y4768700D01*
X24218900Y4737000D01*
X24183400Y4721100D01*
X24089000D01*
G01X24403900Y4906300D02*
Y4588800D01*
X24561300D01*
G01X24699100D02*
X24797500Y4906300D01*
X24895900Y4588800D01*
G01X24860500Y4699900D02*
X24734500D01*
G01X25112400Y4906300D02*
Y4588800D01*
G01X25021900Y4906300D02*
X25202900D01*
G01X25506000Y4588800D02*
X25348600D01*
Y4906300D01*
X25506000D01*
G01X25443000Y4752800D02*
X25348600D01*
G01X25655600Y4588800D02*
Y4906300D01*
X25734300D01*
X25765800Y4890400D01*
X25789400Y4869300D01*
X25809100Y4837500D01*
X25824900Y4800500D01*
X25828800Y4747500D01*
X25824900Y4694600D01*
X25809100Y4657600D01*
X25789400Y4625800D01*
X25765800Y4604700D01*
X25734300Y4588800D01*
X25655600D01*
G01X26568900Y5065000D02*
Y-15000D01*
G01X27238100Y4588800D02*
X27206600Y4594100D01*
X27179100Y4615300D01*
X27155400Y4647000D01*
X27139700Y4684000D01*
X27131800Y4726400D01*
Y4768700D01*
X27139700Y4811100D01*
X27155400Y4848100D01*
X27179100Y4879800D01*
X27206600Y4901000D01*
X27238100Y4906300D01*
X27269600Y4901000D01*
X27297100Y4879800D01*
X27320800Y4848100D01*
X27336500Y4811100D01*
X27344400Y4768700D01*
Y4726400D01*
X27336500Y4684000D01*
X27320800Y4647000D01*
X27297100Y4615300D01*
X27269600Y4594100D01*
X27238100Y4588800D01*
G01X27269600Y4673500D02*
X27316800Y4588800D01*
G01X27553000Y4906300D02*
Y4588800D01*
G01X27462500Y4906300D02*
X27643500D01*
G01X27867900Y4588800D02*
Y4731700D01*
X27789200Y4906300D01*
G01X27946600D02*
X27867900Y4731700D01*
G01X27600200Y143700D02*
Y461200D01*
X27454600Y233700D01*
X27651400D01*
G01X27600200Y1413700D02*
Y1731200D01*
X27454600Y1503700D01*
X27651400D01*
G01X27466400Y842200D02*
X27490000Y805200D01*
X27521500Y784000D01*
X27556900Y778700D01*
X27588400Y784000D01*
X27619900Y810400D01*
X27639600Y842200D01*
X27643500Y873900D01*
X27635700Y911000D01*
X27608100Y937400D01*
X27580600Y948000D01*
X27545100D01*
G01X27580600D02*
X27604200Y963900D01*
X27623900Y990400D01*
X27631700Y1022100D01*
X27623900Y1053900D01*
X27604200Y1080300D01*
X27568700Y1096200D01*
X27533300Y1090900D01*
X27497900Y1069700D01*
G01X27320700Y2313300D02*
X27344300Y2345000D01*
X27371900Y2360900D01*
X27403400Y2366200D01*
X27442700Y2355600D01*
X27470300Y2329200D01*
X27478200Y2297400D01*
X27474200Y2265700D01*
X27458500Y2239200D01*
X27379800Y2186300D01*
X27344300Y2149200D01*
X27320700Y2096300D01*
X27312800Y2048700D01*
X27478200D01*
G01X27702500D02*
X27710400Y2117500D01*
X27722200Y2175700D01*
X27738000Y2228600D01*
X27757600Y2286800D01*
X27789100Y2366200D01*
X27631700D01*
G01X27387600Y2683700D02*
X27395500Y2752500D01*
X27407300Y2810700D01*
X27423100Y2863600D01*
X27442700Y2921800D01*
X27474200Y3001200D01*
X27316800D01*
G01X27710400Y2683700D02*
Y3001200D01*
X27663200Y2937700D01*
G01Y2683700D02*
X27757600D01*
G01X27320700Y3583400D02*
X27344300Y3615100D01*
X27371900Y3631000D01*
X27403400Y3636300D01*
X27442700Y3625700D01*
X27470300Y3599300D01*
X27478200Y3567500D01*
X27474200Y3535800D01*
X27458500Y3509300D01*
X27379800Y3456400D01*
X27344300Y3419300D01*
X27320700Y3366400D01*
X27312800Y3318800D01*
X27478200D01*
G01X27710400Y3636300D02*
X27678900Y3625700D01*
X27655300Y3599300D01*
X27639500Y3567500D01*
X27627700Y3525200D01*
X27623800Y3477500D01*
X27627700Y3429900D01*
X27639500Y3387600D01*
X27655300Y3355800D01*
X27678900Y3329400D01*
X27710400Y3318800D01*
X27741900Y3329400D01*
X27765500Y3355800D01*
X27781300Y3387600D01*
X27793100Y3429900D01*
X27797000Y3477500D01*
X27793100Y3525200D01*
X27781300Y3567500D01*
X27765500Y3599300D01*
X27741900Y3625700D01*
X27710400Y3636300D01*
G01X27478200Y4086100D02*
X27505800Y4123100D01*
X27529400Y4144300D01*
X27560900Y4154900D01*
X27588400Y4144300D01*
X27608100Y4123100D01*
X27623900Y4091400D01*
X27627800Y4054300D01*
X27623900Y4022600D01*
X27608100Y3990800D01*
X27584500Y3964400D01*
X27556900Y3953800D01*
X27525400Y3964400D01*
X27497900Y3996100D01*
X27482100Y4043800D01*
X27478200Y4096700D01*
X27486100Y4165500D01*
X27497900Y4202500D01*
X27517600Y4239500D01*
X27545100Y4266000D01*
X27572700Y4271300D01*
X27600200Y4260700D01*
X27619900Y4234300D01*
M02*
