M48
METRIC,TZ
T01C.813
T02C.889
T03C.914
T04C1.067
T05C3.048
T06C3.962
;LEADER: 12 
;HEADER: 
;CODE  : ASCII 
;FILE  : MAIN-1-2.drl for board #Taaaabs01176.tmp ... layers TOP and BOTTOM
;T01 Holesize 1. = 0.813000 Tolerance = +0.000000/-0.000000 PLATED MM Quantity = 26
;T02 Holesize 2. = 0.889000 Tolerance = +0.000000/-0.000000 PLATED MM Quantity = 71
;T03 Holesize 3. = 0.914000 Tolerance = +0.000000/-0.000000 PLATED MM Quantity = 27
;T04 Holesize 4. = 1.067000 Tolerance = +0.000000/-0.000000 PLATED MM Quantity = 4
;T05 Holesize 5. = 3.048000 Tolerance = +0.000000/-0.000000 PLATED MM Quantity = 3
;T06 Holesize 6. = 3.962000 Tolerance = +0.000000/-0.000000 NON_PLATED MM Quantity = 4
%
G90
T01
X7747000Y698500
X9271000Y2159000
X10953700Y793800
X11176000Y965600
X11728900Y806800
X12001500Y1143000
X14097000Y1079500
X14224000Y4381500
X12319000Y3238500
X12192000Y3810000
X12001500Y3238500
X9144000Y2667000
X8636000Y2540000
X8382000Y4000500
Y3683000
X4635500Y4445000
Y4191000
X4381500Y4445000
Y4191000
Y4699000
X4635500
X9398000Y6858000
Y7182000
X10668000Y6858000
Y7182000
X11811000Y7810500
T02
X508000Y4826000
R09Y-254000
X2032000Y508000
X1778000
X2286000
R04X254000
X4381500Y1143000
R11Y254000
X4635500
R11Y-254000
X7429500
X7683500
X7429500Y1397000
X7683500
X7429500Y1651000
X7683500
X7429500Y1905000
X7683500
X7429500Y2159000
X7683500
X7429500Y2413000
X7683500
X7429500Y2667000
X7683500
X7429500Y2921000
X7683500
X7429500Y3175000
X7683500
X7429500Y3429000
X7683500
X7429500Y3683000
X7683500
X7429500Y3937000
X7683500
X7429500Y4191000
X7683500
X7429500Y4445000
X7683500
X7429500Y4699000
X7683500
T03
X508000Y1270000
R02Y254000
X4318000Y7366000
R03X254000
X9906000Y4889500
X9652000
X9906000Y4127500
X9652000
X10160000
R07X254000
X10160000Y4889500
R07X254000
T04
X6921500Y6858000
Y7366000
X14668500
Y6350000
T05
X1320800Y6350000
X1676400Y5842000
X2032000Y6350000
T06
X500000Y500000
Y7500000
X15500000
Y500000
M30
