M48
METRIC,TZ
T01C.33
T02C.813
T03C.889
T04C.914
T05C1.067
T06C3.048
T07C3.962
;LEADER: 12 
;HEADER: 
;CODE  : ASCII 
;FILE  : MAIN-1-2.drl for board #Taaaaac02512.tmp ... layers TOP and BOTTOM
;T01 Holesize 1. = 0.330000 Tolerance = +0.000000/-0.000000 PLATED MM Quantity = 18
;T02 Holesize 2. = 0.813000 Tolerance = +0.000000/-0.000000 PLATED MM Quantity = 10
;T03 Holesize 3. = 0.889000 Tolerance = +0.000000/-0.000000 PLATED MM Quantity = 71
;T04 Holesize 4. = 0.914000 Tolerance = +0.000000/-0.000000 PLATED MM Quantity = 27
;T05 Holesize 5. = 1.067000 Tolerance = +0.000000/-0.000000 PLATED MM Quantity = 4
;T06 Holesize 6. = 3.048000 Tolerance = +0.000000/-0.000000 PLATED MM Quantity = 3
;T07 Holesize 7. = 3.962000 Tolerance = +0.000000/-0.000000 NON_PLATED MM Quantity = 4
%
G90
T01
X2540000Y4953000
X4318000
X4953000Y5207000
X5207000
X6159500Y4445000
X5969000Y3873500
X5715000Y3683000
R04Y-127000
X5588000Y1524000
X6477000Y1143000
X7366000Y3683000
X6985000Y3746500
X7112000
X7239000
X10414000Y4889500
T02
X1905000Y4064000
X2159000
Y4318000
X1905000
Y4572000
X2159000
X8636000Y6350000
X8960000
X9906000
X10230000
T03
X508000Y1270000
R06Y254000
Y3556000
R09Y254000
X1905000Y3810000
R11Y-254000
X2159000
R11Y254000
X4953000Y4572000
R14Y-254000
X5207000
R14Y254000
T04
X1206500Y2730500
R02Y254000
X4826000Y6604000
R03X254000
X9906000Y3556000
R09Y-254000
X10668000
R09Y254000
T05
X10160000Y5588000
X9652000
X7620000Y6604000
X6604000
T06
X2286000Y5588000
X1778000Y5943600
X2286000Y6299200
T07
X500000Y500000
Y6500000
X11500000
Y500000
M30
