G04 ================== begin FILE IDENTIFICATION RECORD ==================*
G04 Layout Name:  MAIN.brd*
G04 Film Name:    SMT*
G04 File Format:  Gerber RS274X*
G04 File Origin:  Cadence Allegro 16.6-2015-S059*
G04 Origin Date:  Sat May 11 14:35:04 2019*
G04 *
G04 Layer:  VIA CLASS/SOLDERMASK_TOP*
G04 Layer:  PIN/SOLDERMASK_TOP*
G04 Layer:  PACKAGE GEOMETRY/SOLDERMASK_TOP*
G04 Layer:  BOARD GEOMETRY/SOLDERMASK_TOP*
G04 *
G04 Offset:    (0.000 0.000)*
G04 Mirror:    No*
G04 Mode:      Positive*
G04 Rotation:  0*
G04 FullContactRelief:  No*
G04 UndefLineWidth:     0.254*
G04 ================== end FILE IDENTIFICATION RECORD ====================*
%FSLAX35Y35*MOMM*%
%IR0*IPPOS*OFA0.00000B0.00000*MIA0B0*SFA1.00000B1.00000*%
%ADD14C,2.032*%
%ADD15C,1.524*%
%ADD10C,5.08*%
%ADD11C,1.905*%
%ADD16R,1.524X1.524*%
%ADD13C,3.556*%
%ADD17R,1.905X1.905*%
%ADD12C,1.778*%
%LPD*%
G75*
G54D10*
X500000Y500000D03*
Y7500000D03*
X15500000Y500000D03*
Y7500000D03*
G54D11*
X508000Y1270000D03*
Y1778000D03*
Y1524000D03*
X4381500Y4191000D03*
Y4445000D03*
Y4699000D03*
X4318000Y7366000D03*
X4635500Y4191000D03*
Y4445000D03*
Y4699000D03*
X5080000Y7366000D03*
X4826000D03*
X4572000D03*
X9652000Y4127500D03*
Y4889500D03*
X10414000Y4127500D03*
X10160000D03*
X9906000D03*
Y4889500D03*
X10160000D03*
X10414000D03*
X11176000Y4127500D03*
X10922000D03*
X10668000D03*
Y4889500D03*
X10922000D03*
X11176000D03*
X11938000Y4127500D03*
X11684000D03*
X11430000D03*
Y4889500D03*
X11684000D03*
G54D12*
X508000Y2540000D03*
Y2794000D03*
Y3048000D03*
Y3302000D03*
Y3556000D03*
Y3810000D03*
Y4064000D03*
Y4318000D03*
Y4572000D03*
Y4826000D03*
X2032000Y508000D03*
X1778000D03*
X2794000D03*
X2540000D03*
X2286000D03*
X3302000D03*
X3048000D03*
X4381500Y1143000D03*
Y1397000D03*
Y1651000D03*
Y1905000D03*
Y2159000D03*
Y2413000D03*
Y2667000D03*
Y2921000D03*
Y3175000D03*
Y3429000D03*
Y3683000D03*
Y3937000D03*
X4635500Y1143000D03*
Y1397000D03*
Y1651000D03*
Y1905000D03*
Y2159000D03*
Y2413000D03*
Y2667000D03*
Y2921000D03*
Y3175000D03*
Y3429000D03*
Y3683000D03*
Y3937000D03*
X7429500Y1143000D03*
Y1397000D03*
Y1651000D03*
Y1905000D03*
Y2159000D03*
Y2413000D03*
Y2667000D03*
Y2921000D03*
Y3175000D03*
Y3429000D03*
Y3683000D03*
Y3937000D03*
Y4191000D03*
Y4445000D03*
Y4699000D03*
X7683500Y1143000D03*
Y1397000D03*
Y1651000D03*
Y1905000D03*
Y2159000D03*
Y2413000D03*
Y2667000D03*
Y2921000D03*
Y3175000D03*
Y3429000D03*
Y3683000D03*
Y3937000D03*
Y4191000D03*
Y4445000D03*
Y4699000D03*
G54D13*
X1320800Y6350000D03*
X1676400Y5842000D03*
X2032000Y6350000D03*
G54D14*
X6921500Y6858000D03*
Y7366000D03*
X14668500Y6350000D03*
Y7366000D03*
G54D15*
X7747000Y698500D03*
X8636000Y2540000D03*
X8382000Y3683000D03*
Y4000500D03*
X9271000Y2159000D03*
X9144000Y2667000D03*
X9398000Y7182000D03*
X10953700Y793800D03*
X11176000Y965600D03*
X10668000Y7182000D03*
X12001500Y1143000D03*
X11728900Y806800D03*
X12001500Y3238500D03*
X11811000Y7810500D03*
X12319000Y3238500D03*
X12192000Y3810000D03*
X14097000Y1079500D03*
X14224000Y4381500D03*
G54D16*
X9398000Y6858000D03*
X10668000D03*
G54D17*
X11938000Y4889500D03*
M02*
