M48
METRIC,TZ
T01C.33
T02C.813
T03C.889
T04C.914
T05C1.067
T06C3.962
;LEADER: 12 
;HEADER: 
;CODE  : ASCII 
;FILE  : MAIN-1-2.drl for board #Taaaaao17552.tmp ... layers TOP and BOTTOM
;T01 Holesize 1. = 0.330000 Tolerance = +0.000000/-0.000000 PLATED MM Quantity = 19
;T02 Holesize 2. = 0.813000 Tolerance = +0.000000/-0.000000 PLATED MM Quantity = 60
;T03 Holesize 3. = 0.889000 Tolerance = +0.000000/-0.000000 PLATED MM Quantity = 24
;T04 Holesize 4. = 0.914000 Tolerance = +0.000000/-0.000000 PLATED MM Quantity = 47
;T05 Holesize 5. = 1.067000 Tolerance = +0.000000/-0.000000 PLATED MM Quantity = 6
;T06 Holesize 6. = 3.962000 Tolerance = +0.000000/-0.000000 NON_PLATED MM Quantity = 4
%
G90
T01
X5588000Y889000
X6921500Y1143000
X6096000Y2159000
X5969000Y2476500
X6159500Y2730500
Y3302000
X6413500Y3429000
X6350000Y3619500
X6540500Y4127500
X6787200Y5404800
X6970500Y5969000
X7239000Y5842000
X7366000Y5715000
X7429500Y5524500
X7556500Y5397500
X8636000Y3492500
X7810500Y3111500
X9906000Y3238500
Y2667000
T02
X2286000Y1778000
R14Y254000
X2540000
R14Y-254000
X5334000
R14Y254000
X5588000
R14Y-254000
T03
X508000Y3302000
R09Y254000
X3048000Y571500
R06X254000
X14478000Y4064000
R06Y254000
T04
X698500Y2222500
R02Y254000
X4445000Y6604000
R03X254000
X6604000
X6350000
X6858000Y2667000
Y1905000
X7112000
R06X254000
X7112000Y2667000
R06X254000
X8890000Y1905000
X9144000
X8890000Y2667000
X9144000
X11938000Y3556000
Y3810000
Y4318000
Y4572000
X10922000Y5334000
R02X508000
X10922000Y6350000
R02X508000
X12954000Y5334000
Y5080000
Y4572000
Y4318000
Y3810000
Y3556000
Y3048000
Y2794000
T05
X10160000Y4572000
Y5588000
Y6350000
X9652000
X8890000
X7874000
T06
X500000Y500000
Y6500000
X14500000
Y500000
M30
